<?xml version="1.0" encoding="UTF-8"?><svg xmlns="http://www.w3.org/2000/svg" viewBox="0 0 401.55873 126.89199"><g id="a"/><g id="b"><path id="c" d="M214.71791,70.35662v48.84183h-10.06348l-19.58984-32.16992v32.16992h-10.09668v-48.8418h10.09668l19.58984,32.20312v-32.20312l10.06348-.00003Zm27.80957,48.84183c-.40234-.84961-.72656-1.93457-.97266-3.25391-.96191,1.07324-2.18652,1.99609-3.67285,2.76758-1.4873,.77148-3.31543,1.15723-5.48438,1.15723-3.4668,0-6.38574-1.02344-8.75586-3.06934-2.37012-2.04688-3.55566-4.64648-3.55566-7.7998,0-3.80078,1.40918-6.74707,4.22656-8.83887,2.81836-2.09082,6.98828-3.13672,12.5127-3.13672h4.32715v-2.11328c0-1.67676-.43066-3.0127-1.29199-4.00781-.86035-.99512-2.21973-1.49316-4.0752-1.49316-3.4668,0-5.19922,1.4541-5.19922,4.36035h-9.69434c0-3.15234,1.39648-5.86426,4.19238-8.13379s6.54199-3.40527,11.23828-3.40527c4.18066,0,7.65332,1.0625,10.41504,3.18652,2.76172,2.125,4.14258,5.31152,4.14258,9.56055v15.36328c0,2.05859,.12305,3.72363,.36914,4.99902,.24609,1.27441,.60547,2.37012,1.07422,3.28711v.57031h-9.7959Zm-8.0166-6.74316c1.63184,0,3.02441-.36328,4.17578-1.08984s1.97363-1.52637,2.46582-2.39844v-6.30664h-3.95801c-2.57227,0-4.45117,.54297-5.63574,1.62695-1.18555,1.08496-1.77832,2.4209-1.77832,4.00879,0,1.20801,.41992,2.20312,1.25781,2.98535,.83887,.7832,1.99609,1.17383,3.47266,1.17383Zm41.3125,6.50781c-.80566,.26953-1.68359,.4873-2.63379,.65527-.95117,.16699-2.01855,.25098-3.20312,.25098-3.17578,0-5.70312-.82715-7.58105-2.48242-1.87891-1.65527-2.81836-4.40527-2.81836-8.25195v-19.1543h-5.33301v-7.07812h5.33301v-8.95605h9.69434v8.95605h6.17285v7.07812h-6.17285v18.14746c0,1.52148,.31348,2.52734,.93945,3.01953s1.55371,.7373,2.78418,.7373c.58105,0,1.1123-.02734,1.59375-.08301,.48047-.05566,.88867-.11816,1.22461-.18457v7.3457Zm4.75781-45.45312c0-1.45312,.49219-2.65527,1.47656-3.60645,.9834-.9502,2.30273-1.42578,3.95801-1.42578,1.6543,0,2.97363,.47559,3.95801,1.42578,.98438,.95117,1.47656,2.15332,1.47656,3.60645,0,1.43164-.49219,2.62207-1.47656,3.57227-.98438,.95117-2.30371,1.42578-3.95801,1.42578-1.65527,0-2.97461-.47461-3.95801-1.42578-.98438-.9502-1.47656-2.14062-1.47656-3.57227Zm10.33203,9.39258v36.2959h-9.72852v-36.2959h9.72852Zm4.86035,18.5166v-.7041c0-5.27734,1.49805-9.67773,4.49512-13.2002,2.99609-3.52246,7.22363-5.2832,12.67969-5.2832,5.52344,0,9.77246,1.76074,12.74707,5.2832s4.46191,7.92285,4.46191,13.2002v.7041c0,5.27832-1.4873,9.67285-4.46191,13.18359s-7.20117,5.2666-12.67969,5.2666c-5.50098,0-9.75098-1.75586-12.74707-5.2666-2.99707-3.51074-4.49512-7.90527-4.49512-13.18359Zm9.72852-.7041v.7041c0,2.95215,.56445,5.46289,1.69336,7.53125s3.06934,3.10254,5.82031,3.10254c2.70605,0,4.62305-1.03418,5.75293-3.10254,1.12891-2.06836,1.69434-4.5791,1.69434-7.53125v-.7041c0-2.88477-.56543-5.38379-1.69434-7.49707-1.12988-2.11328-3.06934-3.16992-5.82031-3.16992-2.72852,0-4.65138,1.05664-5.76953,3.16992-1.11816,2.11328-1.67676,4.6123-1.67676,7.49707Zm45.39941-10.63379c-2.75098,0-4.79785,1.16309-6.13965,3.48828v25.62891h-9.69434v-36.2959h9.09082l.33496,4.15918c2.59473-3.21973,6.07324-4.83008,10.43359-4.83008,3.44434,0,6.2168,1.0293,8.31934,3.08594,2.10156,2.05762,3.15332,5.64746,3.15332,10.76855v23.1123h-9.72852v-23.14648c0-2.3252-.49707-3.90234-1.49219-4.72949s-2.4209-1.24121-4.27734-1.24121Zm41.23145,19.05371c0-1.02832-.47559-1.89551-1.42578-2.59961-.95117-.70508-2.94629-1.38086-5.9873-2.03027-3.71289-.78223-6.79297-2.0293-9.24219-3.74023-2.44824-1.70996-3.67285-4.13086-3.67285-7.26172,0-3.01953,1.28027-5.65234,3.84082-7.90039,2.56055-2.24707,6.09961-3.37109,10.61719-3.37109,4.71777,0,8.43066,1.10742,11.13672,3.32129,2.70508,2.21387,4.05859,5.00977,4.05859,8.38574h-9.69434c0-1.38574-.44727-2.53809-1.34182-3.45508-.89451-.91699-2.29295-1.375-4.19334-1.375-1.60938,0-2.86816,.375-3.77344,1.12402s-1.3584,1.68262-1.3584,2.80078c0,1.05078,.49707,1.91211,1.49219,2.58301s2.75586,1.25195,5.28418,1.74414c3.93555,.7832,7.2002,1.97949,9.79492,3.58887,2.59375,1.61035,3.89062,4.21582,3.89062,7.81641,0,3.19824-1.375,5.84863-4.12598,7.9502-2.75,2.10254-6.46289,3.15332-11.13672,3.15332-5.07715,0-8.95605-1.30273-11.63965-3.9082s-4.02539-5.38379-4.02539-8.33594h9.22461c.08887,1.90137,.78809,3.26562,2.09668,4.09277,1.30762,.82715,2.82227,1.24121,4.54492,1.24121,3.75684,0,5.63574-1.27539,5.63574-3.82422ZM202.34194,7.66134h10.09766V39.86447c0,5.68066-1.76759,9.98535-5.30078,12.91406-3.5332,2.93066-8.00586,4.39551-13.41797,4.39551-5.47949,0-9.97461-1.46484-13.48438-4.39551-3.51172-2.92871-5.2666-7.2334-5.2666-12.91406V7.66134h10.09668V39.86447c0,3.22021,.76562,5.55713,2.29785,7.01074,1.53125,1.4541,3.65039,2.18066,6.35645,2.18066s4.81934-.72656,6.33984-2.18066c1.52051-1.45361,2.28125-3.79053,2.28125-7.01074V7.66134Zm32.10742,19.72412c-2.75,0-4.79688,1.16309-6.13867,3.48877v25.62891h-9.69434V20.20724h9.09082l.33496,4.15918c2.59473-3.22021,6.07227-4.83008,10.43262-4.83008,3.44434,0,6.2168,1.02881,8.31934,3.08594,2.10156,2.05762,3.15332,5.64697,3.15332,10.76807v23.11279h-9.72852v-23.14648c0-2.32568-.49707-3.90234-1.49219-4.72998-.99512-.82715-2.4209-1.24121-4.27734-1.24121Zm21.50781-16.5708c0-1.45361,.49219-2.65527,1.47656-3.60693,.9834-.9502,2.30273-1.42529,3.95801-1.42529,1.6543,0,2.97363,.4751,3.95801,1.42529,.98438,.95166,1.47656,2.15332,1.47656,3.60693,0,1.43115-.49219,2.62207-1.47656,3.57227-.98438,.95068-2.30371,1.42578-3.95801,1.42578-1.65527,0-2.97461-.4751-3.95801-1.42578-.98438-.9502-1.47656-2.14111-1.47656-3.57227Zm10.33203,9.39258V56.50314h-9.72852V20.20724h9.72852Zm25.92578,36.06055c-.80566,.26855-1.68359,.48633-2.63379,.6543-.95117,.16797-2.01855,.25195-3.20312,.25195-3.17578,0-5.70312-.82715-7.58107-2.4834-1.87889-1.6543-2.81834-4.40479-2.81834-8.25146V27.28488h-5.33301v-7.07764h5.33301V11.2507h9.69434v8.95654h6.17285v7.07764h-6.17285v18.14795c0,1.521,.31348,2.52734,.93945,3.01904,.62598,.49219,1.55371,.73779,2.78418,.73779,.58105,0,1.1123-.02734,1.59375-.0835,.48047-.05566,.88867-.11768,1.22461-.18457v7.34619Zm35.71973-5.66895c-1.16309,1.65527-2.92969,3.16406-5.2998,4.52832-2.37109,1.36426-5.32227,2.04688-8.85547,2.04688-5.6582,0-10.0752-1.7168-13.25098-5.14941s-4.7627-7.57568-4.7627-12.42871v-1.30811c0-5.479,1.52539-9.97412,4.57812-13.48486s7.17285-5.2666,12.36133-5.2666c5.21094,0,9.17969,1.63232,11.90918,4.89746,2.72754,3.26514,4.0918,7.58105,4.0918,12.94824v4.12598h-23.1123c.33594,2.34814,1.26367,4.24365,2.78418,5.68604s3.52246,2.16357,6.00488,2.16357c3.68945,0,6.6084-1.35303,8.75488-4.05908l4.79688,5.30029Zm-15.2959-23.24658c-2.05859,0-3.64551,.69336-4.76367,2.07959-1.11816,1.38672-1.84473,3.19824-2.18066,5.43457h13.48535v-.73828c-.04492-1.94531-.58691-3.56104-1.62695-4.84717-1.04004-1.28564-2.67871-1.92871-4.91406-1.92871Zm43.77148,29.15088l-.46973-3.8584c-1.11816,1.40918-2.44336,2.51562-3.97461,3.32129-1.53223,.80566-3.30566,1.20801-5.31836,1.20801-4.49512,0-7.9834-1.74512-10.46582-5.2334-2.48242-3.48877-3.72363-7.87158-3.72363-13.1499v-.7041c0-5.52344,1.24121-9.99658,3.72363-13.41797,2.48242-3.42188,5.99316-5.13232,10.5332-5.13232,3.53418,0,6.44141,1.30811,8.72266,3.92432V4.97726h9.72754V56.50314h-8.75488Zm-14.22363-17.7124c0,2.90771,.51367,5.38428,1.54297,7.43018,1.02832,2.04639,2.81736,3.06982,5.36719,3.06982,2.95215,0,5.06641-1.25244,6.34082-3.75732v-14.39062c-1.23047-2.50439-3.32129-3.75732-6.27441-3.75732-2.52734,0-4.32129,1.03467-5.38379,3.10303-1.0625,2.06885-1.59277,4.60156-1.59277,7.59814v.7041ZM121.02996,115.40336c.07086-.01592,.1681,.06185,.20342,.10259-2.7682,2.83724-6.31828,4.7812-9.72503,5.75053-2.5278,.7181-5.07312,.83844-7.67869,.54657-4.00811-.44929-7.54404-2.0554-10.86246-4.2364-1.98647-1.30547-3.95161-2.64266-5.91681-3.97997-2.25705-1.53708-4.7476-1.81832-7.36903-1.39026-1.42039,.15389-.34316,.83667-.12559,.94451,3.52178,1.72463,6.83655,3.7907,9.93392,6.18042,2.10488,1.54415,5.8602,5.16504,5.8602,5.16504l-2.80899,2.40558s-2.14385-2.40204-3.07775-3.33605c-6.16273-6.41916-11.61964-9.24042-12.82959-9.93735-.21221-.12205-.41557-.23879-.63142-.23879-.2158,0-.41922,.11674-.63148,.23879-1.20989,.69693-6.6668,3.51819-12.8313,9.93735-.93218,.93401-3.07592,3.33605-3.07592,3.33605l-2.81081-2.40558s3.75709-3.62089,5.86203-5.16504c3.09726-2.38972,6.41208-4.45579,9.93381-6.18042,.21762-.10784,1.2948-.79062-.12553-.94451-2.62149-.42806-5.11203-.14681-7.36898,1.39026-1.9653,1.33731-3.93216,2.6745-5.91863,3.97997-3.31659,2.18099-6.85252,3.78711-10.86245,4.2364-2.60375,.29186-5.14918,.17152-7.67687-.54657-3.40681-.96933-6.96573-2.92568-9.73393-5.76292,.03532-.04068,.14145-.10613,.21221-.09021,.23526,.10431,.38025,.1786,.60848,.29717,4.1144,2.11731,8.4498,2.36318,12.90554,1.50524,3.04242-.58549,5.86905-1.80423,8.70098-3.01407,2.02893-.86497,4.03292-1.81838,6.12199-2.50823,5.41445-1.78654,10.90143-1.76537,16.4114-.36969,.09021,.02476,.18396,.03715,.27948,.04947,.09375-.01233,.18932-.02471,.27948-.04947,5.51003-1.39568,10.99689-1.41685,16.41145,.36969,2.08896,.68985,4.09307,1.64326,6.12188,2.50823,2.83016,1.20984,5.65861,2.42858,8.70109,3.01407,4.45568,.85795,8.79113,.61208,12.90554-1.50524,.22813-.11857,.37323-.19286,.60837-.29717Zm12.99757-11.8c-2.35616,1.80948-3.87384,2.40912-5.82842,3.07957-2.93801,1.00824-6.10425,1.21166-9.17326,1.37263-4.05592,.21226-7.97033,.38732-11.96799,1.03649l-.06368,.01072c-.25123,.04063-.36615-.0655-.28484-.15218,.01426-.01415,.04068-.03361,.06014-.04068,3.56429-1.30541,5.98585-4.07018,7.80953-7.54061,1.26296-2.40387,3.33075-7.10022,3.90562-7.86785,.01244-.01592-.00182-.17163-.03891-.2017-.27063,.0885-4.19389,3.42809-5.97512,5.08196-2.20935,2.05358-4.28957,4.24701-6.50058,6.30065-3.45457,3.29891-8.4215,4.7476-10.22036,5.21457-.04079,.01056-.12211,.04063-.14156,.06362-.05307,.06904-.0796,.13272-.09021,.16279-.00354,.01238,.00182,.02117,.0141,.023l.08142,.01946c1.39562,.31834,5.42689,1.19392,7.49468,1.74586,3.18034,.85253,6.36781,1.5672,9.66318,1.79887,3.56954,.25123,7.12316-.12382,10.44153-1.36019,3.77296-1.40624,8.42327-4.72814,11.07831-8.70805,.00708-.01067,.0141-.0283,.00708-.03184-.11498-.06014-.24946-.02123-.27063-.00708Zm12.14852-18.626c-.10967,.14145-2.09614,2.74349-6.96584,6.07772-2.36313,1.64686-4.55833,2.69578-7.15489,3.90037-3.24065,1.50529-6.03184,2.87963-8.78776,5.16151-.1786,.14681-.32718,.2582-.5076,.39086-.09723,.07075-.1928-.04953-.08667-.17329,.13443-.15571,4.18864-4.3071,5.40738-13.10542,.42447-3.07072,.48461-6.38732,1.48047-9.34661,.02836-.09375-.02825-.19452-.06185-.24056-.00536-.00708-.03189,.01061-.03715,.01769-2.97874,3.40675-5.45873,8.70628-6.6155,12.01934-.81898,2.34544-1.60081,4.70332-2.44803,7.03826-1.14986,3.16796-2.65162,6.14139-5.08904,8.55234-.03532,.03715-.21939,.22995-.21939,.22995,0,0-.03007,.0566-.04063,.1451,0,.00884,.01238,.02653,.01946,.02471,.34852-.06014,.57665-.09375,.80134-.14145,2.71342-.56078,5.41091-1.20995,8.14014-1.66449,4.56198-.76055,8.54709-2.38087,12.22276-5.20219,3.68628-2.83016,6.80665-6.12735,8.84254-10.34606,.52889-1.09663,1.02593-2.17038,1.35312-3.37137-.06893-.02653-.1786-.02128-.25284,.03361Zm5.3207-20.93612c-1.17103,3.73399-3.28835,6.75695-6.37682,10.00816-2.4215,2.49933-7.08242,7.22576-9.23506,10.50338-.0602,.09204-.22122,.05135-.16108-.11492,1.0366-2.85316,1.47876-7.89974,.85794-11.81062-.53065-3.33605-1.99172-6.9764-2.35262-11.05891-.00354-.01946,.00182-.023-.00525-.04245-.02128-.05301-.11149-.17689-.17163-.18214-.00171,.01233-.04063,.07075-.13792,.38738-.70041,2.37208-1.57599,5.3437-1.72109,8.10311-.17689,3.32898,.451,7.60954,.17689,11.0358-.31845,3.95869-.58903,7.87492-2.40387,11.46575-.0089,.01769-.01415,.03886-.02123,.05832-.03709,.09557,.06368,.27246,.06368,.27246,0,0,.01592-.00354,.023-.0089,1.45576-.92859,5.60372-3.37491,8.33836-5.20037,3.41383-2.28005,6.43325-4.98993,8.79467-8.39856,2.94873-4.25934,4.66092-9.38906,4.57425-14.61419-.00348-.17689-.01581-.48826-.03532-.52712-.03891-.01592-.19811,.09729-.2069,.12382Zm-8.79832,2.25352c-.01244,.04953-.05478,.07075-.06904,.07606-.08485,.02476-.12553-.07788-.12376-.10088,.13266-1.05772,.14151-2.36313,.06899-3.35722-.28484-3.91098-2.64443-7.14969-4.71399-10.40444-1.079-1.6981-2.94862-4.66617-3.74643-6.66503-.00708-.01763-.16445-.11674-.21226-.09546-.02123,.35023,.05135,1.50175,.12913,2.24639,.58018,5.59847,2.36318,11.08008,4.2081,16.39376,1.23471,3.5571,1.85198,6.60489,1.47168,10.36541-.04063,.31309-.05135,.34669,.0796,.44227,.00525,.00354,.01233-.0089,.01586-.00354,1.26119-1.8202,3.71818-4.37437,5.23049-6.21751,1.63978-1.99532,9.89849-11.40909,5.83013-24.52512-.24576-.79073-.5395-1.47522-.64027-1.6238-.06368,.00177-.17335,.16456-.18578,.2069,.02482,9.43511-4.53882,13.48583-6.44387,19.94031-.36261,1.2293-.64917,2.37026-.89858,3.3219Zm-7.11255-29.32578c-1.4965-1.29303-3.72343-3.5943-5.02707-5.60024-.0089-.01592-.01951-.02653-.03007-.03709-.01769-.01769-.03715-.03361-.0566-.04422-.08137-.05135-.18578-.0566-.21403-.04245-.06014-.01061-.10967-.00708-.10613,.00708,.08131,.39268,1.37965,4.55479,2.21814,6.4934,1.21166,2.79838,3.15734,5.14382,4.98108,7.55305,.13084,.17506,.2635,.34841,.39451,.52535,1.83065,2.46047,4.75815,7.70329,5.46398,10.39371,.01935,.07612,.18208,.14681,.18916,.11503,.25648-.96054,1.4399-4.69099,2.31719-7.20989,.18402-.52352,1.73707-5.58072,2.05015-7.76874,.88614-6.2069-1.16031-14.26053-4.78292-18.66143-.06014,.02128-.11149,.18225-.10094,.21762,.06733,.20696,.11503,.36615,.17517,.57311,.0796,.27058,.15566,.54304,.21934,.82069,.94451,4.04365,.62789,6.8968,.1645,10.33539-.36969,2.74177-.90035,5.45519-.75889,8.21985,.02305,.46173,.30607,3.86499,.26356,3.99412-.0477,.15207-.18567,.03532-.20159-.04428-.00536-.02471-.44575-1.26467-.88796-2.30299-.18396-.45111-.36969-.87741-.5254-1.18513-1.45394-2.88676-3.33423-4.38498-5.74517-6.35194Zm-3.99583-25.12835c1.16213,1.13389,2.06596,2.40039,2.6975,3.88617,.9994,2.34373,1.29297,5.86739,1.93866,8.53299,.39445,1.61844,.63673,2.76466,1.20459,4.60249,.05124,.16102-.11674,.23531-.2017,.08142-.0141-.02128-.02825-.04068-.04417-.06014-1.86791-2.53123-4.1851-4.11086-7.4876-6.19457-1.9616-1.28767-3.45633-2.45329-4.87667-4.37962-.24587-.33078-.49882-.65453-.74822-.97994-.02123-.02653-.17163-.0796-.21757-.06191-.00702,.07424,.02653,.22105,.0566,.4086,.42276,2.12793,1.84845,6.06533,4.28946,8.39845,1.75641,1.67693,3.73045,3.1663,5.60543,4.71758,3.34324,2.79827,5.78243,5.81952,6.5678,6.81892l.03538,.03891s.15035,.09546,.14681,.0424c-.00177-.01233-.00177-.02825-.00354-.04068l.00354-.00348c-.04599-.48997-.06362-1.26832-.06362-2.18807,.00171-2.04833,.09369-4.78828,.18391-6.67387,.03532-.76237,.06185-1.52829,.05832-2.29243-.00525-2.27657-.26002-4.52649-1.21691-6.68454-1.55482-3.49873-3.86665-6.28113-7.32481-8.00223-.20342-.10082-.47228-.20342-.64563-.24593-.00708-.00171-.03178,.10796,.01763,.24769,.00354,.01415,.01421,.023,.02482,.03178Zm-14.32415-6.61368c2.00234,1.77941,3.60851,3.88617,5.11198,6.09187,1.44161,2.1156,2.86731,4.26116,4.82719,5.95926,1.2948,1.30724,5.06422,4.23645,6.00702,4.96699,.01415,.01238,.02825,.02653,.04068,.03184,.03007,.01233,.0796-.00531,.0796-.00531,0,0-.00525-.02653-.00708-.04251-.19817-1.08248-1.90151-9.02291-6.87199-12.95324-2.67096-2.31012-6.21928-3.7252-9.66506-4.67507-.03527,.06539,.00354,.23703,.02482,.23349,.16633,.14499,.28655,.24587,.45283,.39268ZM39.21006,113.71051c3.29531-.23166,6.48284-.94634,9.66323-1.79887,2.06779-.55194,6.099-1.42752,7.49462-1.74586l.08131-.01946c.01244-.00182,.0178-.01061,.01426-.023-.01072-.03007-.03726-.09375-.09032-.16279-.01935-.023-.10077-.05307-.14328-.06362-1.7971-.46526-6.76403-1.91567-10.21865-5.21457-2.21106-2.05364-4.29112-4.24707-6.50047-6.30065-1.78123-1.65388-5.70454-4.99347-5.97512-5.08368-.03726,.03178-.05135,.1875-.03897,.20342,.57482,.76763,2.64272,5.46398,3.90562,7.86785,1.82374,3.47043,4.24524,6.2352,7.80942,7.54061,.01951,.00708,.04605,.02653,.06014,.04068,.08142,.08667-.03355,.1928-.28473,.15218l-.06368-.01072c-3.9976-.64917-7.91212-.82423-11.96804-1.03649-3.0689-.16097-6.23514-.36438-9.17326-1.37263-1.95458-.67045-3.47231-1.27009-5.82836-3.07957-.023-.01415-.15566-.05307-.27069,.00708-.00708,.00354,0,.02117,.00719,.03184,2.65499,3.97991,7.30535,7.30182,11.07826,8.70805,3.31831,1.23637,6.87199,1.61142,10.44153,1.36019Zm-3.09903-8.18265c.22459,.0477,.45283,.08131,.80129,.14145,.00708,.00182,.01951-.01586,.01951-.02653-.01072-.08667-.04079-.14328-.04079-.14328,0,0-.18391-.1928-.22105-.22995-2.43576-2.41266-3.93569-5.38438-5.08721-8.55234-.84722-2.33494-1.63088-4.69282-2.44809-7.03826-1.15688-3.31306-3.6367-8.61077-6.6155-12.01934-.00536-.00708-.03189-.02476-.03715-.01769-.03355,.04605-.09016,.14681-.06191,.23874,.99586,2.96111,1.05595,6.27771,1.48053,9.34843,1.21874,8.79832,5.27289,12.9497,5.40738,13.10542,.10613,.12376,.00879,.24405-.08667,.17329-.17865-.13266-.32901-.24233-.50772-.39086-2.75576-2.28187-5.54712-3.65621-8.7876-5.16151-2.59667-1.20459-4.79182-2.25352-7.155-3.90037-4.86959-3.33423-6.85607-5.93626-6.96745-6.07772-.07258-.05489-.18225-.06014-.25123-.03361,.32901,1.20099,.82434,2.27474,1.35323,3.37137,2.03589,4.21871,5.15614,7.51413,8.84243,10.34606,3.67567,2.82132,7.66089,4.44164,12.22276,5.20219,2.72934,.45454,5.42683,1.10553,8.14025,1.66449Zm-22.49973-18.07058c2.73459,1.82545,6.8826,4.27177,8.33831,5.20037,.00708,.00536,.023,.0089,.023,.0089,0,0,.10082-.17689,.06368-.27246-.00708-.01946-.01238-.04063-.02128-.05832-1.81484-3.59082-2.08542-7.50706-2.40376-11.46575-.27423-3.42626,.35371-7.70683,.17689-11.0358-.14681-2.75941-1.0224-5.73102-1.72115-8.10311-.09723-.31662-.1362-.37505-.13803-.38738-.06009,.00525-.1503,.12913-.17152,.18214-.00702,.01946-.00177,.023-.00531,.04245-.36085,4.08251-1.82374,7.72286-2.35252,11.05891-.62092,3.91087-.17871,8.95746,.85784,11.81062,.06009,.16627-.10265,.20696-.16097,.11492-2.15275-3.27763-6.81356-8.00405-9.23517-10.50338-3.08836-3.2512-5.20573-6.27417-6.37671-10.00816-.0089-.02653-.16799-.13974-.20524-.12382-.02117,.03886-.03361,.35023-.03715,.52712-.08667,5.22513,1.62568,10.35485,4.5743,14.61419,2.36136,3.40863,5.38084,6.11851,8.79478,8.39856Zm-1.43636-12.26521c.00354-.00536,.01056,.00708,.01592,.00536,.13089-.0974,.12028-.13101,.0796-.44409-.38025-3.75881,.23702-6.80831,1.47168-10.36541,1.84491-5.31368,3.62786-10.7953,4.2081-16.39194,.07783-.74646,.15035-1.89798,.12907-2.24821-.0477-.02128-.20513,.07783-.21221,.09729-.79775,1.99703-2.66737,4.96693-3.74637,6.66321-2.06961,3.25474-4.43103,6.49345-4.71404,10.40444-.07252,.99409-.06362,2.29951,.06893,3.35722,.00182,.023-.03886,.12564-.12376,.10088-.01415-.00531-.0566-.02653-.06893-.07606-.24941-.95164-.53596-2.09261-.9004-3.3219-1.90323-6.45448-6.46692-10.5052-6.44221-19.94031-.01227-.04234-.122-.20513-.18562-.2069-.10088,.14858-.39451,.83307-.64038,1.6238-4.06841,13.11603,4.19041,22.5298,5.82842,24.52512,1.51403,1.84314,3.97096,4.39731,5.23221,6.21751Zm-5.91144-26.07109c.88083,2.52061,2.06242,6.25106,2.31891,7.21332,.00702,.03007,.16981-.04063,.18926-.11674,.70578-2.69042,3.63322-7.93324,5.46398-10.39371,.13084-.17694,.26356-.35029,.39451-.52535,1.82363-2.40923,3.76942-4.75467,4.98108-7.55305,.83832-1.93861,2.13672-6.10071,2.21985-6.4934,.00177-.01415-.04776-.01769-.1079-.0089-.02836-.01233-.13266-.00708-.21398,.04428-.01951,.01061-.03897,.02653-.0566,.04422-.01072,.00884-.02128,.02117-.03007,.03709-1.3037,2.00593-3.53068,4.30721-5.02713,5.60024-2.41089,1.96696-4.29123,3.46518-5.74523,6.35194-.15571,.30772-.34139,.73402-.5254,1.18331-.4421,1.04014-.88266,2.2801-.88791,2.30481-.01592,.0796-.15383,.19634-.20336,.04428-.04079-.12913,.24222-3.53239,.26704-3.99412,.13792-2.76466-.39097-5.47808-.76066-8.21985-.46338-3.43859-.78001-6.29175,.16273-10.33711,.06368-.27412,.14156-.5484,.22116-.81898,.06014-.20696,.1079-.36615,.17506-.57311,.01061-.03538-.04063-.19634-.10077-.21762-3.62261,4.4009-5.66922,12.45453-4.78291,18.66143,.31309,2.18801,1.86608,7.24521,2.04833,7.76702Zm5.22513-13.66083c0,.91975-.01763,1.6981-.06367,2.18807l.00354,.00348c-.00182,.01244-.00182,.02836-.00354,.04068-.00536,.05307,.14681-.0424,.14681-.0424l.03543-.03891c.78526-.9994,3.22285-4.02065,6.56769-6.81892,1.87498-1.55128,3.84902-3.04065,5.60549-4.71758,2.44101-2.33311,3.86671-6.27052,4.28946-8.39845,.03007-.18755,.06368-.33437,.0566-.4086-.04599-.01769-.19634,.03538-.21751,.06191-.24941,.32541-.50241,.64917-.74657,.97994-1.42216,1.92633-2.91683,3.09195-4.87844,4.37962-3.3025,2.08371-5.61969,3.66335-7.4876,6.19457-.0141,.01946-.03007,.03886-.04417,.06014-.0849,.15389-.25295,.0796-.20159-.08142,.56775-1.83784,.81008-2.98405,1.20448-4.60249,.64563-2.6656,.93926-6.18926,1.93877-8.53299,.63137-1.48578,1.53531-2.75228,2.69567-3.88617,.01238-.00879,.023-.01763,.0283-.03178,.04776-.13974,.023-.24941,.01597-.24587-.17346,.04068-.44404,.14328-.64563,.2441-3.45816,1.72109-5.77005,4.50349-7.32487,8.00223-.957,2.15805-1.21166,4.40798-1.21697,6.68454-.00171,.76414,.023,1.53006,.05837,2.29243,.09021,1.88731,.18214,4.62554,.18396,6.67387Zm7.16037-13.18855s.04942,.01763,.07949,.00531c.01244-.00531,.02653-.02128,.04079-.03184,.94274-.73054,4.71034-3.65975,6.00696-4.96699,1.95983-1.69981,3.38564-3.84366,4.82725-5.95926,1.50175-2.2057,3.10953-4.31246,5.11192-6.09187,.1645-.14681,.28655-.24587,.45283-.39451,.01946,.00536,.06014-.16627,.02471-.23166-3.44572,.94987-6.99398,2.36495-9.66489,4.67507-4.97053,3.93033-6.67393,11.87076-6.87199,12.95324-.00182,.01597-.00708,.04251-.00708,.04251Zm55.9964,43.26786c.3892-.58549-.58184-.95518-.83479,.06185-.23714,.94639,.44393,.52181,.83479-.06185Zm10.59724-24.50212c-.37677-.19634-1.92633,1.69273-1.67864,1.99875,.11138,.12211,1.81484-1.90853,1.67864-1.99875Zm.33254-.33431c.23349,.122,1.26119-.43696,1.0701-.58731-.18927-.15207-1.39728-.71102-1.4221-.36969-.03532,.55547,.11674,.83495,.352,.957Zm18.66497,16.36187c-.48643,.02123-1.01361,.72517-.86502,.73407,.35023,.01763,.61727,.26887,.89858,.2069,.5165-.11492,.45283-.96043-.03355-.94097Zm-6.76414-17.61781c-.41922,.01067-.5254,.46703-.12211,.67399,.18048,.09375,.7553,.00879,1.01886-.15743,.27776-.17512,.60146-.39268,.54132-.81721-.03543-.25825-.63679-.98702-.32199-1.2665,.33962-.3043,.68278,.16799,1.01532,.03886,.40512-.15737,.36798-.38909,.38041-.73402,.01581-.47753-.17517-1.10553-.72877-1.10553-.4122,0-1.12858,1.10371-1.16042,1.17098-.05483,.12028-.16981,.52358,.00702,.93395,.24593,.57134,.15035,1.24173-.62966,1.2629Zm9.16801,.07606c-.01244,.25477,.7234,2.02716,.7977,2.51005,.07435,.4829,.22641,1.92982,.61556,1.78123,.24587-.09557,.22287-.98177,.16981-1.32492-.15743-1.00642-.36085-1.87664-.7323-3.00699-.19634-.60146-1.04893-2.56483-1.33194-2.4959-.25118,.06025,.42276,1.42929,.52181,1.87504,.06539,.29009-.02653,.40501-.04063,.66149Zm-4.84488-23.63715c.45283,.17163,.451-.67388-.31845-1.29834-.7642-.62264-1.78306-.32011-1.50712-.01227,.24946,.27583,1.42398,1.15677,1.82556,1.31061Zm-20.86017-5.99104c-.90919-.58731-.14853-1.39739-.87547-1.94214-.50943-.38213-1.93695-.00365-2.29066,.44918-.61385,.79427,.79245,.53071,1.30187,.75712,.56957,.25112,1.79185,1.30187,2.00936,1.08961,.2158-.21403-.04422-.26002-.1451-.35377Zm5.52595-2.78063c-1.2241-.55896-5.83367-.53425-5.71339,.66503,.09906,1.02422,2.66212,.06197,3.32544,.00536,.66509-.05832,3.46877-.11492,2.38795-.67039Zm-13.48754,53.63504c-.06014-.22813-.45985-.19098-.36079,.01951,.09911,.21044-.12028,.42452,.08485,.68808,.26892,.28827,.84905,.25295,1.14096,.01415,.1681-.18225,.06191-.52712-.0655-.59428-.22105-.10972-.73938,.10077-.79952-.12747Zm-1.77587-9.16972c.3803,0,.36615-.28473,.5872-.27412,.22288,.00884,.04079,.28838,.42629,.28838,.38213,0,.78366-.98531-.44575-.98531-1.00111,0-.8684,.95695-.56775,.97104Zm1.5955,1.01886c-.76409-.19634-.60854,.23885-1.07717,.29009-.77664,.08496-.08667-.57311-.4688-.87558-.1681-.13261-.62446,.53242-.65801,.9481-.02123,.19988-.02653,.87741,.30247,.89863,.32901,.02117,2.05889,.21934,2.63564,.35018,.65973,.15218-.02653-1.42918-.73413-1.61142Zm-8.51702,9.18216c.23526,0,.40507-.83495,.25997-1.24527-.14676-.41037-.90383-.10265-.97099,.08844-.0655,.19275,.474,1.15683,.71102,1.15683Zm-11.16327-.08314c.03372-.35913,.00365-1.40977-.24758-1.61314-.25112-.2017-.21757,.17854-.39794,.15737-.13974-.01592-.12747-.50418-.3043-.50235-.17689,0,.06014,.8349,.24941,1.31951,.18927,.48643,.65624,1.2807,.70041,.63861Zm-.26881-2.55068c.05837-.12382,.44044-1.87327,.38202-2.54184-.06014-.66691-.41557-1.29657-.50578-1.25058-.12039,.06191,.05478,.46167,.07595,1.10907,.03189,.96756-.42447,1.77233-.42447,2.09078-.00182,.30065,.28655,.98171,.47228,.59256Zm-29.80685-6.18573c0-14.15783,5.50632-27.45958,15.50392-37.45718C48.54075,5.50643,61.84433,0,76.00215,0s27.45964,5.50643,37.45724,15.50392c9.99749,9.9976,15.50392,23.29936,15.50392,37.45718s-5.50643,27.46146-15.50392,37.45724c-9.9976,9.99754-23.29936,15.50392-37.45724,15.50392s-27.46141-5.50638-37.45719-15.50392c-9.9976-9.99578-15.50392-23.29936-15.50392-37.45724Zm16.314,35.04801l5.75407-5.75407c-1.13206-1.19392-2.19509-2.4534-3.18388-3.76937-.44581-.17689-.89863-.42452-1.20989-.81013-.49174-.61385-.74994-1.51237-.98354-1.51237-.2352,.00177-.01935,.57128-.54304,.6474-.71285,.10431-1.71927-1.66803-2.11195-2.31366-.46344-.76061-1.2241-.76768-1.59733-1.48058-.10784-.20513-.36615-.83484-.60489-.46161-.39445,.63325-1.74762-1.37976-2.09255-1.24173-.35559,.13792-.04251,.55713-.24239,.73402-.38732,.34498-1.52646-1.54238-1.95276-1.34958-.39976,.18219-.49174,.42458-.51479,.92511-.02117,.52004,.62264,1.85729,.39622,1.96166-.32182,.14681-1.96868-4.04708-1.6096-4.23817,.20159-.1079,.16981,.19109,.39794,.05483,.23531-.14151-.16445-.4316-.27229-.88625-.11321-.47577-.5254-.48643-.56078-1.00996-.03178-.52187,.71279-.34669,.70406-.60146-.0089-.25466,.05832-.54475,.26875-.72694,.24593-.21232,.8208,.01056,.94462-.72528,.10613-.62789,.42276-.04588,.48826,.42104,.07606,.54121,1.45925,.67741,1.52646,.30601,.04063-.23526-.55901-.22641-.55901-.43514-.00171-.39976,.76066-.01769,1.2807,.02825,.22641,.01946,.63507-.34669,1.15152-.07954,.56255,.29181,.90919,.43337,1.28242,.49351-1.25235-3.82249-1.9794-7.882-2.08896-12.09192h-8.10498c.27776,12.7517,5.22878,24.71444,14.0376,33.91594Zm33.43305-46.95061c.0566,.08667-.5306,.62092-.8313,1.13925,.93744-.35206,1.91213-.57847,2.9133-.67576v-8.1261c-4.55308,.26179-8.6939,2.08371-11.89552,4.93858l5.73638,5.73644c.65978-.54127,1.37611-1.01001,2.14738-1.39745,.19988-.099,.40147-.19098,.605-.27765,.39268-.68631,1.25052-1.45051,1.32476-1.33731Zm-20.02864,30.29693c.00177,.16097-.00525,.32016-.03897,.47051,.42104,.5165,.85087,1.02416,1.3037,1.51231l5.747-5.74694c-2.70457-2.9982-4.59022-6.7464-5.30832-10.89087-.17158,.04605-.32547,.02305-.42104-.14328-.11669-.20159,.05312-.40678,.30082-.61202-.08314-.6102-.14328-1.22753-.17518-1.85199h-3.82602c.03897,.60854,.28302,1.48583-.11857,1.79185-.33072,.25123-.79947-.00354-1.09846,.03715-.73402,.09906-.90211,.98525-.70749,1.58671,.12736,.40507,.30419,.71815,.23349,1.15506-.0655,.41032-.28838,.73048,.36079,1.07364,.59439,.31137,1.55664,1.53182,1.47705,1.74237-.10259,.27063-.69339-.25295-.73048,.23703-.023,.30065,.87204-.08496,.82069,.9339-.03007,.59256,.11851,1.24173,.29009,1.64857,.35371,.84733,.76061,1.40629,.72523,2.36147-.02825,.79245-.16799,1.65564,.17871,2.4021,.35725,.76768,.98343,1.38849,.98696,2.29243Zm-4.77767-13.67145c-.47234-.54127,.31309-2.08017,.42978-2.38264,.12564-.32016,.83849-.7323,1.05247-1.20818h-3.40498c.06539,1.78129,.29009,3.53245,.65796,5.24464,.81726,.29899,2.38806-.36787,1.26478-1.65382Zm-2.13683,21.8966c-.02471,.0141-.05295,.02471-.08131,.03538,.30955,.35195,.62446,.69864,.94634,1.03826l.64917-.64917c-.60854-.38384-1.16921-.62617-1.51419-.42447Zm13.92622-41.24965l-5.73108-5.73102c-4.7246,5.09075-7.70334,11.82117-7.97934,19.22912h4.01535c.67216-1.08248,.44404-1.90682,.66863-2.53653,.2158-.59964,.56957-1.1497,.90211-1.6892,.2954-.47582,.63153-1.01178,1.25063-1.01532,1.30889-.00708,1.63431-.69168,2.46401-1.07192,.82954-.3803,2.29774-.605,2.13141-1.03837-.11321-.29181-3.06359,.85259-3.12727,.62971-.11149-.39086,.93036-.35377,1.36909-.74999,.08662-.08131,.17152-.13084,.25289-.17152,.94805-2.15446,2.22704-4.13032,3.78357-5.85495Zm-1.03301,5.36321c.07783-.03361,.15571-.07075,.23703-.11674,.98343-.56249,2.27651-.45465,2.82662-.2158,.70931,.30955,1.61667,1.09846,2.02887,1.41331,.17865,.13615,.2635-.1168,1.09846-.24233,.34846-.05135,.42812,.29894,.92511,.36969,.19988,.02825,.36433,.03715,.51479,.02653l-4.99535-4.99347c-1.01703,1.14091-1.90317,2.40387-2.63553,3.75881Zm-5.625,6.17146c-.63496-.06539-1.27888,.19817-1.62021,.75005-.23879,.38202-.30601,.81013-.2247,1.21338h2.8992c.02836-.54834,.07778-1.09138,.14511-1.62734-.37334-.19452-.81726-.29717-1.19939-.33608Zm8.26236,16.12313l5.73992-5.74174c-.46875-.56957-.87912-1.18684-1.23294-1.83955l-.00171,.00354c-.09021,.10431-.16628,.21044-.21226,.31126-.11846,.25648,.03538,1.11089-.32016,1.47705-.45819,.474-1.6892-1.04362-2.0784-1.16921-.52889-.16627-.78183,.41568-.75348,.58367,.0707,.43691-.01774,.61208-.20878,.65099-.19109,.03715-1.15335-.61738-.7234-.78183,.50053-.18927-.13095-.62092-.34681-.78891-.3714-.28655-.95153-.01946-1.22399-.39976-.29186-.40866-.84197-.70223-1.01178-.75176-.11503-.03361-.67924-.27246-1.04893-.07783-.29009,.1556-.60318-.16102-.8208-.37323-.12023-.11674-.24051-.25295-.36787-.38561,.68449,3.52001,2.31366,6.70571,4.61139,9.28293Zm5.74517-9.91446c.00182-.04953,.00536-.10077,.01072-.15212,.00171-.01415,.00171-.02825,.00354-.04068,.00348-.03886,.00873-.07777,.01227-.11674,.00354-.01592,.00536-.03355,.00708-.04953l.01072-.07424c.00354-.01415,.00525-.02653,.00702-.04068,.00171-.01415,.00525-.03007,.00708-.04417,.0089-.05312,.01946-.10447,.03178-.154v-.00354c.01072-.0477,.023-.09546,.03726-.13974,.00348-.01592,.00873-.02825,.01227-.04234,.01072-.03189,.01951-.06197,.03189-.09204l.01592-.04245c.01233-.0283,.02305-.05483,.03715-.07965l.01597-.03355c.01935-.03361,.0388-.0655,.06009-.09192,.07429-.09386,.17335-.11149,.29009-.09557,.20159,.02825,.45454,.1592,.70046,.17152,.17683,.0089,.35018-.0424,.50064-.23703,.06893-.08839,.13255-.18927,.1786-.28827,.04781-.09906,.07788-.19634,.0796-.27594,0-.03891-.00536-.07435-.01946-.10442-.04251-.08667-.15925-.11492-.3892-.03532-.0477,.01597-.09369,.03178-.14145,.04422-.09552,.02653-.18927,.04417-.27948,.0477-.04599,.00182-.0885,0-.13084-.00708-.12747-.01763-.23885-.07424-.32381-.18927-.02653-.03886-.05124-.08314-.07241-.1362-.02653-.06722-.05843-.12553-.09557-.17689-.14328-.20867-.35377-.31309-.57311-.44393-.10967-.0655-.22116-.13443-.32901-.22824-.05307-.04593-.10613-.09729-.15566-.1556-.04069-.04599-.07965-.09021-.12028-.13266-.01597-.01592-.03178-.03007-.04776-.04422-.02653-.02653-.05135-.05135-.0796-.07606-.01946-.01774-.04063-.03538-.06014-.05135-.023-.01935-.04599-.03715-.06899-.05478-.02471-.01946-.04776-.03543-.07258-.05307-.01946-.01244-.04063-.02653-.0618-.03897-.02659-.01763-.05312-.03361-.08148-.0477l-.05307-.02653c-.03007-.01415-.06185-.02836-.09187-.04068-.01426-.00531-.02836-.00884-.04251-.01421-.03543-.01061-.0707-.02294-.10613-.03007l-.02123-.00354c-.27069-.05124-.55371,.01946-.82782,.28484l-.01061,.00884c-.04245,.0424-.08667,.09021-.12913,.14328l-.01415,.01586c-.04245,.05489-.08496,.11149-.1273,.177-.00182,.00525-.00536,.01056-.01072,.01581-.0424,.06722-.08485,.13974-.1273,.21762-.08839,.16279-.17335,.34487-.25471,.56073-.65801,1.72281-1.42039,1.19569-1.2948,1.80959,.01415,.07241,.19988,.12194,.4688,.14322,.10784,.00879,.22995,.01415,.35725,.01415,.12913,0,.2671-.00354,.40512-.01238,.13974-.00708,.28119-.01951,.41911-.03715,.06904-.0089,.1362-.01946,.2017-.03007,.04069-.00536,.07778-.01244,.11675-.01946,.03715-.00708,.07424-.01415,.11149-.023l.09723-.02123c.04251-.01061,.08137-.023,.12028-.03361,.02471-.00708,.04953-.01421,.07075-.02128,.06191-.01946,.11851-.04063,.1681-.06368,.08839-.04063,.17854-.07606,.26704-.10613l.00879-.00171c.08496-.02836,.16981-.04953,.25123-.06368,.17152-.03184,.32901-.03007,.45283,.01415,.09021,.03178,.27594,.10967,.40866,.30247,.10967,.15743,.21398,.42983,.23868,.64734Zm7.74939-24.94605v-8.10841c-7.40977,.27594-14.14019,3.25463-19.23095,7.97923l5.73285,5.73108c3.61553-3.26171,8.32067-5.33657,13.4981-5.6019Zm0-10.37436V12.64551c-10.26646,.28473-19.58648,4.42566-26.56101,11.02348l5.73102,5.72925c5.50113-5.13315,12.79587-8.36484,20.82999-8.64437Zm-28.16187,4.51416c-6.59599,6.97458-10.73692,16.29465-11.01994,26.56101h8.10664c.27953-8.0323,3.51111-15.32704,8.64437-20.82999l-5.73108-5.73102Zm-11.01994,28.82514c.11503,4.20461,.87912,8.24815,2.19161,12.03885,.04781-.00354,.09198-.00536,.13974-.00708,.82252-.03891,1.92274-.01238,2.44096-.41214,.79781-.61556,.06014-2.81778,.56078-3.73581,.61733-1.1356,2.15971-3.82956,2.62326-3.84731,.41032-.01586,.39268,.29015,.60135,.33962-.24593-1.43625-.39976-2.89555-.44934-4.37614h-8.10836Zm39.18181,41.44771c-10.89081-.28473-20.77692-4.67861-28.16187-11.68497l-5.75402,5.75407c9.20151,8.80705,21.16424,13.75807,33.91589,14.03583v-8.10493Zm0-10.37072c-7.19215-.24769-13.96502-2.84072-19.45028-7.40623,.12376,.15046,.23172,.29545,.31491,.43519,.37317,.64381,1.67151,1.95281,.84551,2.47639-.68631,.43337-1.82374,.14145-2.46053,.13089-.70223-.0089-1.72286,1.04003-2.32421,1.14445-.76591,.13089-1.20464,.07252-1.92103-.21762-.17683-.07247-.3997-.21221-.65265-.39086l-.91273,.91267c6.97452,6.59604,16.29454,10.73698,26.56101,11.02171v-8.10659Zm0-2.84962c-1.14091,.08485-2.86554,.0566-3.2742-.2247-.85076-.58903-1.86437-1.16739-1.97929-1.62375-.20524-.81019-1.31426-1.41862-1.31426-2.17746,0-.8438,1.16562-1.11974,.85435-1.97586-.24941-.68095,.41391-1.53354,1.6274-2.12793-3.55721-.87558-6.77475-2.61967-9.41211-4.99872l-5.74346,5.74346c5.27825,4.90331,12.03349,7.69804,19.24156,7.96513v-.58018Zm1.75293-10.83421c.86314-.1451,1.77946-.39451,2.5577-.47228,.85259-.0849-.03532,1.12853,.47057,1.17805,.60489,.06014,3.0919,.48461,3.26707-.0796,.14328-.46344,.17689-.67216,.71113-.78714,1.00642-.21934,1.80412-.18755,2.6567-.83844,.30784-.23526,.94291-.32016,1.12499-.66863,.18225-.34852-.13084-1.99709-.74463-1.72817-.29894,.13266-.65973,.55896-1.29834,.88094-.57841,.29004-.98879,.42264-1.39911-.12747-.37505-.50053,.21923-.89321,.52706-1.2293,.47582-.52187,.90737-1.05075,1.43631-1.05075,.20519,0,1.29834-.54304,1.20641-1.04003-.12039-.64386-1.39037,.05837-1.68577-.20696-.20513-.18225-.00354-.64563-.16279-.71638-.14853-.06899-.61727,.57128-.25466,.91809,.1875,.18037-.3043,.68272-.85612,.32182-.42452-.28119-.53425,1.26655-.4971,1.54957,.03726,.28302,.62264,.20513,.2336,.71456-.39097,.51297-.53596,.13272-.82434,.38384-.34669,.3043-.42447,.42104,0,.86143,.33962,.35023-.19988,1.01538-.32552,.39274-.08314-.41391-.95336-.28832-1.1178-.75707-.16981-.4829-.87741-.43514-1.73707-.87558-.65099-.33437-.56786,.65271,.53596,.90383,.93744,.21409,.88973,.32552,.62081,.91273-.21934,.48118-.17683-.36969-1.29126-.66503-.71638-.18927-.74994-.57134-1.3142-.56432-.57134,.00536-.3839,.54657-.98707,.40512-.45631-.10796-.52706,.5076-.94799,.68631-.51308,.21934-.4829,1.14798-1.00476,1.40447-.77647,.3803-2.36855,.09375-2.29597-.6757,.07252-.76945,.10796-1.34433,.55371-1.61496,.39257-.23526,1.04003,.45454,1.58489,.21049,.56957-.25295,.42629-.85966,.08131-1.24881-.10259-.13266-.52004-.33962-.51125-.47051,.0089-.16102,.8208-.23708,1.23118-.51297,.41214-.27594,.85435-1.01178,1.06485-1.17634,.22459-.17506,.66509-.21934,.70577-.38202,.0566-.20701-.31137-.58378-.27594-.83672s.12376-.44746,.32016-.43331c.19634,.01592,.42978,.58195,.3043,.71815-.14328,.15389,.10248,.41391,.36969,.30419,.26875-.10967,1.22222-.48284,1.49993-.55542,.37671-.10077-.09375-.95336,.02836-1.10553,.11492-.14328,.22641,.04605,.3714-.099,.14505-.14505-.29717-.28832-.22641-.59787,.05135-.23349,1.04893-.50412,.77476-.68106-.27412-.1786-.64381,.33791-.86314,.43514-.49716,.21939-.73938-.32364-.72357-.73584,.00889-.19982,.27948-.90737,.04251-1.04539-.32906-.18927-.38384,.65271-.43519,.81726-.07949,.24941-.29181,.56426,.07258,1.2435,.19634,.36615,.09552,1.60606-.28655,1.74226-.40684,.14681-.58554-.62971-.77653-.94982-.03189-.05483-.0655-.09557-.10077-.11498l-.01072-.00531c-.01586-.00708-.03178-.01061-.04942-.0089h-.00182c-.01769,.00182-.03543,.01244-.05307,.02653l-.01415,.01244c-.01946,.01763-.03715,.03891-.05843,.0707-.03178,.04958-.08314,.1362-.12548,.21049-.03007,.05307-.09021,.17871-.16633,.39622-.04781,.13803-.13449,.22116-.28832,.25477-.41568,.04599-.83495,.07424-1.26296,.07424-.16456,0-.32901-.00354-.49174-.01056,.06899,.25471,.14156,.5306,.23526,.70931,.22464,.42452,.65442,.76768,.58201,1.08077-.07258,.3148-1.38501,.59964-1.49297,.36969-.13443-.28655,.33072-.86143,.29357-1.12145-.06716-.47405-.30601-.75707-.27594-1.08607-2.31537-.23177-4.43092-1.14981-6.13603-2.55251l-5.74174,5.74174c2.83199,2.52233,6.39445,4.23994,10.32832,4.78474,.55542-.33962,.78355-.94639,1.22228-.61738,.69869,.52717,1.54067-.17683,2.09786-.27058Zm.5112,13.68201v8.10841c3.28299-.09192,6.47046-.57836,9.51642-1.41326-.63325-.53779-.92157-1.40977-1.70517-1.67864-1.34786-.46344-1.71048-1.29309-.98171-2.4959,.3944-.64917,.23885-.90565-.22288-1.59727-.56249-.84192-1.28944-1.22753-1.81666-1.45576-1.5619,.29192-3.15906,.47582-4.78999,.53242Zm3.89153-2.66737c-.26538-.28655-.80317-.30778-1.18342-.20524-1.31785,.35736-.87729-.68985-2.70811-.42276v1.03124c1.32139-.04953,2.61972-.18927,3.89153-.40324Zm30.02259,7.10901l-5.75407-5.75407c-2.96636,2.81419-6.33774,5.20567-10.01523,7.08071-1.21166,.91444-2.69214,1.57958-3.81187,2.08719-.46869,.21226-.97635,.49003-1.50883,.49003-.17152,0-.32011-.0566-.46863-.14858-3.90037,1.30541-8.04838,2.06242-12.35548,2.17563v8.10493c12.7517-.27776,24.71433-5.22878,33.91412-14.03583Zm-11.34353-58.62331c-.01072,.04781-.03543,.07435-.0655,.0938,1.33548,1.44161,2.53653,3.00705,3.59425,4.67325,.12393-.15737,.22116-.29711,.39268-.10077,.28655,.32718-.29883,.92157,.55022,.76591,.51114-.09375,.40678,.56067-.00719,.91101,.26184,.47217,.51479,.94982,.75359,1.43443,.29888,.13449,.52529,.29722,.57128,.4918,.13449,.56957,.39622,1.20105,.4599,1.83076,.40512,1.02057,.76237,2.06596,1.0649,3.13435,.4175-.35725,.88796-.16273,.93749,.43337,.04953,.5961-.13974,1.24173-.39976,1.77598,.36267,1.75288,.58908,3.55539,.65271,5.39848h8.10659c-.14681-5.24812-1.32305-10.4397-3.4298-15.21029-.16091,.12913-.37671,.13974-.64917,.48472-.41032,.51816-1.07364-.12918-1.43797-.58201-.67924-.83844-2.27839-3.19631-2.99826-3.31488-.60146-.09906-1.05075-.88083-1.684-1.00996-.63137-.12913-1.42033-.48472-1.52293-1.15335-.10796-.68449-.35725-.96579-1.05954-1.07546-.79421-.122-1.34786-.43691-1.90682-1.03118l-1.94043,1.94048c.01592,.04234,.02482,.07949,.01774,.10956Zm5.14553,49.22363l.44393,.44393c6.59787-6.97281,10.73869-16.29283,11.02171-26.56106h-8.10659c-.27948,8.03418-3.51117,15.32892-8.64432,20.83181l2.92562,2.92562c.02128-.04068,.04063-.08131,.06009-.122,.24239-.51297,.13803-1.18342,.17871-1.65388,.02471-.30778,1.14096-.23349,1.22056,.27412,.06716,.42812,.28827,.74292,.67559,1.80605,.27948,.76591,.4122,1.46986,.2247,2.0554Zm-6.1556,5.05886c-.21403,.51479-1.29834,1.44161-1.11078,1.74591,2.18807-1.39209,4.23452-2.98582,6.11132-4.76003l-5.73108-5.72931c-.39976,.37328-.8119,.7323-1.23113,1.08613-.09911,.65624-.00889,1.17092,.79781,1.42033,.87022,.26892,2.32245,1.15335,2.01643,2.01118-.34316,.76774-1.19221,1.91743-1.60258,2.67986-.34852,.65094,1.00824,.92865,.74999,1.54592Zm1.33725-33.54272c-.01238,.03361-.03355,.06904-.05843,.10259h5.96993c-.03184-.86143-.10436-1.71402-.20696-2.5577-.04776,.08844-.09911,.17689-.13974,.26356-.44575,.92693-.51297,.36792-.48107-.03532,.04234-.51479,.23868-.99597,.42983-1.52304-.04605-.276-.09558-.5484-.15035-.82075-.17871,.25471-.43702,.43508-.84203,.63679-.2635,.13438-.51291,.7553-.61031,.99233-.11492,.28655-.77116-.06722-1.31066,.1928-.94628,.45636-1.91572,.52535-1.22404,1.50529,.44221,.62435-1.05954,.44929-1.37617,1.24345Zm-2.06779-19.12653l-5.73102,5.73102c.98514,1.09326,1.86072,2.28718,2.61254,3.56252,.67399,.10431,1.59373,.375,2.1863,1.13737,.41922,.54121,1.62911,1.62375,1.44333,2.10847-.11321,.29711,.13974,.66509,.41574,.85961,.42276,.29545,.72169,.28838,.95336-.00702,.42276-.5395,.48301-1.26827,1.04368-1.72817,.68631-.56603,2.0925,1.06839,2.09078,1.36732-.00182,.29888-.36444,.36969-.46875,.90035-.14145,.72523-.76409,1.5902-.0566,1.83247,1.03124,.352,1.16213-.05295,1.65741-.77824,.22813-.33437,.17871-.87387,.42447-1.20459,.15571-.20878,.38743-.29717,.59439-.43519-.38732-1.60789-.9004-3.16796-1.53536-4.66264-.15212-.14864-.32901-.27063-.55006-.34316-.3698-.12205-.16102-.45283-.64563-.60495-.55547-.17506-.77127-.33431-.82252-1.30895-.04079-.78537,.66326,.25825,.83832,.12205,.03726-.03007,.07086-.07606,.10442-.12913-1.23648-2.34019-2.77002-4.49647-4.55479-6.41916Zm-6.95341,7.78117c-.27229-.00354-.49699-.0566-.69505-.13266l-1.89449,1.89273c.36267,.09723,.76414-.03726,1.21697,.16445,.50418,.22105,.25825-1.40801,1.02942-1.25942,.78719,.15035,.98879,.65624,.33791,.90211-.52181,.16981,.12918,.60489-.50235,.81898-.57493,.19634,.46698,.704,.45819,.93042-.01072,.31309-.78543,.42983,.37848,.78891,1.16208,.35908,.00348-.97823,.18037-1.16567,.21586-.22824,.83672,.36079,1.0083,.10082,.06362-.09557,.17865-.26173,.32011-.45283-.54304-.91273-1.1586-1.77946-1.83784-2.58783Zm-2.95393,30.09169c.0141,.39799-.38738,.07954-.50943,.21574-.122,.13266,3.18752,1.68223,3.70751,1.77067,.35559,.06009,1.03301,.31303,2.23058,.07424,.803-.15914,1.02588,.21055,1.40082,.19634,.53425-.0194,.88094-.74109,1.19049-1.18513,.82069-1.17092,.66509-1.3283,.88265-1.51054,.27766-.23349,1.08431,1.55836,.98172,2.69396-.01763,.18042-.03891,.34846-.06368,.50943l.08667,.08667c4.7246-5.09075,7.70329-11.82123,7.97929-19.231h-6.16273c.21232,.35023,.58029,.80306,.96762,1.60258,.31126,.64038,.49533,1.65741,1.01886,1.707,.84369,.0796,1.71225,.77829,1.73707,1.3655,.04953,1.22764-3.75886,1.52475-4.2595,1.36738-.42093-.13266-.70042-.16097-.72866,.49882-.03189,.74817-1.37622,.75353-1.90516,1.20099-.59428,.50235-.65973,1.42044-1.05772,2.06071-.23879,.3839-1.64498,1.7123-2.02893,1.98111-.91621,.64038-2.64084,.67216-1.85193,1.09492,.56249,.30082,1.83966,.40684,1.67858,.10972-.18391-.34139,.09729-.37323,.31309-.09375,.16633,.21044,.76591-.20342,.75364-.58903-.01244-.36438-.09204-.95872,.24576-.98177,.5484-.03532,1.12499-.64381,1.39745-.5872,.30955,.06368,.72877,.75176,.41386,2.84779-.31126,2.09786-1.31249,3.55727-1.71219,4.21523-.43154,.704-.8632,.16627-1.44161-.13089-.73584-.37853-1.84491-.36261-2.61972-.61556-.41032-.13266-2.6567-.98348-2.64438-.67393Zm38.62816-16.37961h-8.10311c-.28655,10.89087-4.68043,20.77692-11.68679,28.16187l5.75407,5.75407c8.80888-9.20151,13.75989-21.16424,14.03583-33.91594Zm-14.03583-36.17819l-6.00348,6.00342c.55006,.95877,1.58318,2.16679,3.0406,3.65091,.59793,.6102,1.233,1.20813,1.76542,1.74762,.51114,.51474,3.78523,4.5884,3.15204,5.17914-.04605,.04428-.09546,.08496-.14505,.12559,2.54715,5.34906,3.96223,11.24458,4.12137,17.20738h8.10493c-.27594-12.75165-5.22695-24.71433-14.03583-33.91406Zm-35.51499-7.53359c6.77293,.17517,13.27522,1.92269,19.09126,5.06422,.54304-.08496,1.079-.15218,1.43797-.32016,.72175-.33608,2.14031,.42801,2.82491,.82605,.62435,.36079,1.10907,.89504,1.79538,1.28059,.70223,.39451,1.83076,1.52657,2.07834,2.66748,.24946,1.14085,.97287,1.06308,.61208,1.5248-.18042,.2299,.09552,.31834,.44039,.52352l5.63561-5.63379c-9.20162-8.80888-21.16424-13.75989-33.91594-14.03589V10.38139Zm0,10.37249c6.87906,.23885,13.21155,2.64797,18.34652,6.55724-.58013-.76774-1.1675-1.56201-1.4399-1.85381-.49699-.52889-2.35788-1.17988-2.17027-1.4823,.18562-.3043,1.84137,1.01709,2.13141,.78531,.34841-.27937-.83136-1.7971-.74286-1.85552,.12194-.0796,1.51939,1.27009,2.2057,2.47998,.28655,.42629,1.04721,.21044,1.63978,.62264,.5217,.36615,.55713,.95164,.99581,1.32841,.07075,.06191,.9994,.59793,.4599,.53596-.15566-.01769-.39451-.34852-.57311-.18042-.11144,.10613,.06722,.6757,.38738,1.29834l2.69225-2.69396c-.39097-.79245-1.16213-1.83784-1.69992-1.9705-.55542-.1362-.89681,.33078-1.27888,.64734-.38207,.31662-.85966,.42276-.91975,.21049-.06722-.24056,.07777-.82959,.04953-1.07717-.03897-.30955-.2813-.55365-.36267-.85259-.1928-.70406,.09375-1.48932-.33437-1.9564-.47046-.51297-.78537-1.28944-1.15324-1.87846-.40158-.64215-1.12499-1.63447-1.1675-2.47645-5.24459-2.65145-11.04111-4.13204-17.06582-4.29648v8.10836Zm0,10.37436c5.17566,.26533,9.88257,2.34019,13.4981,5.6019l5.7329-5.73108c-5.09258-4.7246-11.82128-7.70329-19.231-7.97923v8.10841Zm0,10.392c.77116,.07606,1.53,.23172,2.26938,.45985,.1928-.47228,.6757-.70749,1.07192-.97635,.4688-.31845,.80842-.67753,.7412,.18744-.06197,.60854-.31491,.97641-.62971,1.2241,.79416,.34669,1.54951,.77829,2.25175,1.29834,.15383,.11492,.30419,.2352,.45283,.35731l.77829-.77835c-.00708-.02653-.0141-.05307-.0141-.08667,.0141-.4421,.65442-.96933,1.3938-1.29297l2.52763-2.52769c-.0566-.01238-.11846-.023-.19098-.03189-.33962-.04234-.82252,.66161-1.15324,.46709-.37334-.21768,1.11609-1.53011,1.78123-1.27717,.09021,.03361,.18916,.07252,.29181,.11321l.32193-.32199c-3.20168-2.85487-7.34073-4.67679-11.89375-4.93858v8.12433Zm-1.13206,2.20753c-.94993,0-1.87144,.14151-2.75587,.41739-.11674,.12741-.20524,.23354-.13792,.32901,.22288,.32552,.90211-.35725,.99227,.27074,.06722,.45631-.75176,.12023-.67747,.45631,.06009,.26881,.62794,.15743,.64209,.52712,.01238,.33962-.34316,1.00642-.61727,1.18159-.36444,.23349-2.30664,.48997-2.49237,.94097-.16273,.39451-.33254,.75005-.63679,1.07375-.33072,.34852-1.88919,1.27352-1.89273,1.51414-.00879,.5678,.74828-.15566,.95872-.37853,.33437-.35377,.79427-.35206,1.29485-.63856,.6898-.39274,.95518,.98171,.2158,1.03124-.46173,.03178-.85076,1.32841-1.57428,1.079-.18214-.06368-.69693-.38213-.80842-.05307-.11846,.35018,1.07546,.40507,1.45051,.65271,.95336,.62971-.72346,.58549-.99233,.75701-.26538,.16981-.13443,.53596,.22824,.38743,.35018-.1451,.826-.51125,1.04356,.08314,.29363,.80477-1.32486,3.74106-1.79538,3.43152-.25648-.16799-.52181,.07081-.76237,.17335,.32199,.66691,.727,1.28601,1.19221,1.85381,.31845-.5254,.82069-1.26832,1.03301-1.27357,.30065-.00884,.19988-.24587,.31309-.45813,.13974-.25648,.49699,.01238,.52181-.33785,.02471-.34846,.91626-.84905,1.01886-1.36196,.05307-.276-.27595-.55022-.13974-.77835,.16627-.27776,.28655-.32016,.46526-.3803,.17854-.06191,.6013,.35902,.73048,.17689,.12913-.18219,.75884-.04245,1.23991,.26173,.21934,.13974,.64563-.02117,.90748,.35023,.36261,.51125-.01769,.55542,.0477,.66863,.06368,.11321,.22116-.06368,.31662,.03007,.20353,.19817-.94451,.87033-.81362,1.23648,.12913,.36438-.97287,2.16861-1.27534,2.45516-.41568,.37853-1.10199-.04422-1.37263,.03361-.29186,.08314-.34846,.33254-.79775,.22288-.34669-.08314-.76237,.0566-1.14622,.23879,1.62386,1.42569,3.74996,2.2942,6.076,2.2942,.50058,0,.9905-.04599,1.4682-.12382,.29883-.3839,.4227-.85607,.48638-1.33908,.03715-.26173-.00884-.60135,.12918-.83484,.11846-.19817,.87193-1.12499,1.17269-1.11261,.26356,.01061,.44398,.24228,.82423,.12382,.73767-.23177,1.19403-.03538,1.2011,.28302,.01056,.44398-.92865,.31662-.88973,.56603,.02471,.17506,.70577,.43873,.92865,.18396,.41745-.47051,.35559-1.0879,.24764-1.22228-.29545-.37323-.27771-.52712,.14681-.38213,.26179,.09021,.25997-.94274,.50943-1.33896,.33962-.53242-.62789-.15925-1.03118-.10265-.38041,.05312-.69521-.75884-.70406-1.04357-.00708-.20519,.72169,.72523,1.08956,.74463,.41574,.02128,.90748-.46161,.91273-.81533,.0089-.35388-.79245-.40158-.91444-.83142-.06716-.23531,.65088-.00182,.5961-.23349-.046-.20342,.07258-.69344-.38025-.88796-.45111-.1928-.86502-1.63796-1.22592-1.73707-.32016-.08667-.5872,.34669-.78355,.50589-.19457,.15748-.50589-.11492-.34316-.26527,.23177-.2158,.76945-.67924,.88094-1.04362,.18744-.61208,.97453,.03184,.83479-.82252-.1503-.92516-.93926-.74646-.57305-1.19221,.375-.45283,.09552-1.19038-.66686-1.04362-.352,.06722-.72169-.50589-.75884-1.00117-.023-.2724-.80488-.22995-.77481-.51833,.06197-.58903-.82069-.65088-1.36019-.6102-.5395,.03891-1.58318-.79245-1.69992-.99586-.11492-.20524-.86486,.18042-.61727-.61202,.2441-.78006,.98343,.14151,1.2948-.08314,.33614-.24056,.23166-.48643,.17689-.67576-.06014-.00171-.11857-.00702-.17689-.00702ZM40.9542,16.31411l5.75402,5.75407c7.38495-7.00642,17.27106-11.40207,28.16187-11.6868V2.27822c-12.75165,.276-24.71438,5.22701-33.91589,14.03589Zm-15.63675,35.51493h8.10498c.28473-10.89081,4.68032-20.77687,11.68497-28.16005l-5.75407-5.75402c-8.80711,9.19974-13.75812,21.16242-14.03589,33.91406Z"/></g></svg>