<?xml version="1.0" encoding="UTF-8"?><svg id="Layer_2" xmlns="http://www.w3.org/2000/svg" viewBox="0 0 626.3093 126.83706"><defs><style>.cls-1{fill:#fff;}</style></defs><g id="Layer_1-2"><g id="EN"><path id="United_Nations_outlined" class="cls-1" d="M121.02991,115.34849c.07088-.01591,.16811,.06186,.20341,.1026-2.69598,2.7177-6.04454,4.69774-9.72501,5.75053-2.49867,.68561-5.10809,.87135-7.6787,.54659-3.90739-.52356-7.63232-1.9763-10.86246-4.2364-1.98647-1.30547-3.95161-2.64265-5.91681-3.98-2.17293-1.4269-4.82555-1.92734-7.369-1.39026-1.42039,.15388-.34315,.83665-.1256,.9445,3.51122,1.71994,6.83946,3.79062,9.93391,6.18042,2.10487,1.54414,5.86021,5.16499,5.86021,5.16499l-2.80901,2.40559s-2.14384-2.40199-3.07774-3.33606c-3.73351-3.95973-8.0621-7.31252-12.82957-9.93735-.36076-.31839-.90215-.31839-1.26291,0-4.76781,2.62508-9.09695,5.97783-12.8313,9.93735-.93218,.93401-3.07592,3.33606-3.07592,3.33606l-2.81081-2.40559s3.75709-3.6209,5.862-5.16499c3.09441-2.38982,6.42262-4.46049,9.93381-6.18042,.21762-.10785,1.29478-.79062-.12554-.9445-2.54346-.53711-5.19609-.03665-7.369,1.39026-1.96531,1.33731-3.93216,2.6745-5.91864,3.98-3.22982,2.2607-6.95489,3.71349-10.86245,4.2364-2.56999,.32471-5.17881,.13896-7.67687-.54659-3.68394-1.05728-7.03529-3.04141-9.73393-5.76291,.05456-.05907,.13182-.09192,.21221-.09023,.23525,.10431,.38025,.1786,.60848,.29716,3.99982,1.97406,8.55878,2.5058,12.90554,1.50523,2.99981-.69052,5.91685-1.70099,8.701-3.01407,2.02893-.86501,4.03293-1.81837,6.122-2.50822,5.31888-1.71201,11.02081-1.84044,16.41138-.36969,.0919,.02296,.18529,.03949,.27948,.04947,.09418-.01013,.18755-.02666,.27948-.04947,5.39059-1.47076,11.09254-1.34232,16.41145,.36969,2.089,.68985,4.09306,1.64326,6.12189,2.50822,2.78407,1.31335,5.70116,2.32384,8.70108,3.01407,4.34676,1.00055,8.90572,.46883,12.90553-1.50523,.22813-.11858,.37325-.19286,.60838-.29716Zm12.99757-11.8c-1.73219,1.38339-3.70947,2.42813-5.82841,3.07957-2.97963,.8793-6.06677,1.34123-9.17326,1.37263-4.00531,.1259-8.00067,.47192-11.968,1.03648l-.06367,.01073c-.25124,.04063-.36617-.06551-.28484-.15218,.01743-.01709,.0378-.03087,.06013-.0407,3.56429-1.3054,5.98584-4.07018,7.80952-7.5406,1.263-2.40385,3.33073-7.10022,3.90562-7.86784,.01012-.0697-.00359-.14078-.03891-.20171-.27065,.0885-4.19389,3.42809-5.97513,5.082-2.20935,2.05357-4.28957,4.24699-6.50058,6.30064-3.45456,3.2989-8.42149,4.7476-10.22037,5.21457-.05087,.0118-.09897,.03342-.14157,.06363-.03827,.0493-.0687,.10422-.09021,.1628-.00369,.00822-.00003,.01788,.00819,.02158,.00186,.00084,.00386,.00133,.00591,.00142l.08142,.01945c1.39561,.31834,5.4269,1.19392,7.49467,1.74585,3.15579,.90862,6.3918,1.51103,9.66316,1.79887,8.4765,.84219,16.73433-3.0213,21.51984-10.06824,.00708-.01067,.0141-.02831,.00708-.03185-.08508-.04074-.18349-.04333-.2706-.00713Zm12.14851-18.62599c-2.00723,2.3606-4.35495,4.40898-6.96584,6.07771-2.26024,1.51689-4.6553,2.82253-7.15489,3.90038-3.14771,1.31816-6.10353,3.05428-8.78777,5.16151-.1786,.1468-.32718,.25819-.50761,.39085-.09723,.07076-.19279-.04953-.08667-.17329,.13443-.15572,4.18864-4.3071,5.40738-13.10542,.42445-3.07072,.4846-6.38731,1.48047-9.3466,.01547-.08537-.00713-.17323-.06186-.24055-.00536-.00708-.03189,.0106-.03714,.01768-2.87048,3.60252-5.10753,7.66689-6.61549,12.01933-.819,2.34544-1.60081,4.70332-2.448,7.03825-1.03308,3.19653-2.7724,6.11955-5.089,8.55232-.03532,.03716-.21939,.23-.21939,.23-.02159,.04575-.03534,.0948-.04063,.14511,0,.00883,.01237,.02654,.01945,.0247,.34853-.06013,.57664-.09375,.80135-.14145,2.71342-.56078,5.41092-1.20995,8.14015-1.66449,4.44815-.67421,8.65311-2.4639,12.22275-5.20219,3.72565-2.69934,6.75642-6.24545,8.84254-10.34605,.55496-1.07924,1.00797-2.20793,1.35312-3.37137-.08488-.02921-.17857-.01677-.25291,.03355v.00002Zm5.32071-20.93611c-1.17101,3.734-3.28835,6.757-6.37682,10.00815-2.42149,2.49933-7.08241,7.22575-9.23506,10.50337-.0602,.092-.22122,.05136-.16109-.11491,1.14812-3.82642,1.44102-7.85843,.858-11.81061-.53065-3.33606-1.99171-6.97641-2.35262-11.05891-.00354-.01946,.00182-.023-.00526-.04246-.02129-.053-.1115-.17688-.17163-.18213-.05447,.12594-.10054,.25536-.13791,.38738-.87708,2.62759-1.45444,5.34586-1.7211,8.1031-.17688,3.32899,.451,7.60954,.1769,11.03581-.31845,3.95868-.589,7.87492-2.40387,11.46574-.00816,.01903-.01524,.0385-.02122,.05832-.03709,.09557,.06367,.27246,.06367,.27246,.00809-.00172,.01585-.00473,.02299-.0089,1.45576-.92859,5.60371-3.37491,8.33836-5.20036,3.43784-2.2162,6.42249-5.06642,8.79466-8.39856,3.00758-4.2771,4.60655-9.3856,4.57425-14.61419,.00131-.17634-.0105-.35252-.03532-.52711-.03896-.01595-.19815,.09724-.20694,.12379Zm-8.79832,2.25351c-.00958,.03489-.0352,.06313-.069,.07606-.08485,.02477-.12553-.07788-.12376-.10088,.12488-1.11466,.14796-2.23837,.069-3.35722-.28484-3.911-2.64442-7.1497-4.714-10.40444-1.41806-2.12219-2.67056-4.35045-3.74641-6.665-.00708-.01763-.16444-.11674-.21227-.09546,.0043,.75052,.04739,1.50032,.12914,2.24639,.58018,5.59846,2.36317,11.08008,4.2081,16.39376,1.2896,3.29377,1.79349,6.84285,1.47168,10.3654-.04063,.3131-.05135,.34669,.07961,.44228,.00525,.00354,.01231-.0089,.01585-.00354,1.26118-1.82021,3.71819-4.37437,5.23048-6.21751,1.63979-1.99532,9.89848-11.40909,5.83014-24.52511-.16217-.5601-.37653-1.10376-.64027-1.62381-.06367,.00177-.17336,.16456-.18579,.2069,.02483,9.43511-4.5388,13.48583-6.44386,19.94031-.36266,1.22932-.6492,2.37024-.89861,3.32188h-.00002Zm-7.11253-29.32577c-1.90024-1.65228-3.58875-3.53332-5.02707-5.60024-.00816-.01376-.0183-.02626-.03008-.03709-.01672-.0173-.03578-.03218-.05661-.04422-.06313-.04139-.13986-.05661-.214-.04246-.06013-.01061-.10966-.00707-.10612,.00708,.08131,.39268,1.37965,4.55479,2.21814,6.4934,1.35165,2.7082,3.02402,5.24406,4.98108,7.553,.13084,.17506,.2635,.34841,.39452,.52535,1.83064,2.46047,4.75815,7.70329,5.464,10.39371,.01935,.07612,.18208,.14682,.18916,.115,.25648-.96054,1.4399-4.691,2.31718-7.20989,.8313-2.54826,1.51581-5.1421,2.05016-7.76873,.88612-6.2069-1.16031-14.26053-4.78291-18.66143-.06013,.02128-.1115,.18224-.10094,.21762,.06734,.207,.11501,.36615,.17519,.57311,.07959,.27058,.15565,.543,.21933,.82069,.75465,3.39838,.81062,6.91471,.16451,10.33539-.50688,2.71055-.76094,5.46231-.7589,8.21985,.02299,.46173,.30608,3.865,.26357,3.99412-.0477,.15207-.18567,.03532-.20158-.04427-.00536-.02471-.44576-1.26468-.888-2.303-.18401-.45111-.36969-.87741-.52541-1.18513-1.45398-2.88664-3.33427-4.3849-5.74521-6.35185Zm-3.99583-25.12835c1.15147,1.10071,2.06894,2.42248,2.69749,3.88616,.9994,2.34373,1.293,5.86739,1.93866,8.533,.39445,1.61845,.63673,2.76466,1.20459,4.6025,.05124,.161-.11674,.23531-.20171,.08142-.01369-.02079-.02843-.04086-.04417-.06014-1.8679-2.53123-4.1851-4.11087-7.48759-6.19457-1.89023-1.13519-3.54559-2.62183-4.87666-4.37962-.24586-.33078-.49881-.65453-.74821-.97994-.06383-.04383-.14024-.06557-.21758-.06191,.00784,.1375,.02676,.27415,.05659,.4086,.63863,3.13777,2.12177,6.04166,4.28947,8.39845,1.75641,1.67692,3.73045,3.1663,5.60542,4.71758,2.41125,2.04819,4.61148,4.33254,6.56779,6.81892l.03539,.03891s.15034,.09547,.1468,.0424c-.00177-.01233-.00177-.02825-.00354-.04068l.00357-.00351c-.04601-.49-.06361-1.26832-.06361-2.18806,.00171-2.04833,.09369-4.78828,.1839-6.67388,.03532-.76237,.06186-1.52829,.05832-2.29243,.06992-2.28904-.34479-4.567-1.21692-6.68454-1.40196-3.46013-4.00186-6.30047-7.32481-8.00223-.20691-.1023-.4231-.18465-.64563-.24592-.02272,.08214-.01649,.16959,.01764,.24769,.00453,.01305,.01324,.02422,.0248,.03181Zm-14.32416-6.61368c1.94881,1.81195,3.66585,3.85812,5.112,6.09187,1.34367,2.18745,2.96637,4.1907,4.82719,5.95925,1.2948,1.30724,5.06422,4.23646,6.007,4.967,.0121,.01236,.02579,.02306,.0407,.03184,.02649,.00597,.05414,.00411,.07959-.00533,0,0-.00525-.02653-.00706-.0425-.19817-1.08248-1.90152-9.02291-6.87199-12.95324-2.84325-2.24287-6.14165-3.83833-9.66505-4.67507-.03526,.06539,.00354,.237,.02483,.23348,.16629,.145,.28653,.24588,.4528,.3927ZM39.21001,113.65565c3.27138-.28786,6.50741-.89026,9.66323-1.79887,2.06778-.55193,6.099-1.42751,7.49462-1.74585l.08131-.01945c.00901-.00035,.01603-.00795,.01567-.01697-.00008-.00208-.00056-.00412-.00141-.00603-.0216-.05856-.05206-.11346-.09032-.1628-.04305-.03055-.09176-.05219-.14328-.06363-1.79709-.46526-6.764-1.91566-10.21865-5.21457-2.21106-2.05363-4.29112-4.24707-6.50047-6.30064-1.78123-1.65387-5.70454-4.99345-5.97512-5.08366-.03529,.06157-.04902,.13316-.039,.20341,.57482,.76762,2.64272,5.464,3.90562,7.86784,1.82374,3.47043,4.24524,6.2352,7.80942,7.5406,.02237,.00977,.04276,.02356,.06014,.0407,.08143,.08667-.03355,.19279-.28473,.15218l-.06368-.01073c-3.96732-.56458-7.96268-.91058-11.968-1.03648-3.10649-.03142-6.19363-.49336-9.17326-1.37263-2.11893-.65141-4.0962-1.69615-5.82836-3.07957-.08715-.03616-.18555-.03358-.27069,.00708-.00708,.00352,0,.02116,.00718,.03185,4.78548,7.04694,13.0433,10.91043,21.51979,10.06824Zm-3.099-8.18265c.22459,.0477,.45283,.08131,.80129,.14145,.00708,.00183,.01951-.01585,.01951-.02654-.00555-.0497-.01934-.09811-.04079-.14328,0,0-.18391-.19279-.22105-.23-2.31459-2.43401-4.05309-5.35667-5.08722-8.55234-.84722-2.33495-1.63088-4.69283-2.44809-7.03825-1.50839-4.35226-3.74541-8.41656-6.6155-12.01933-.00536-.00708-.03189-.02477-.03714-.01768-.05444,.06676-.07705,.15395-.06191,.23874,.99586,2.96111,1.05594,6.27771,1.48052,9.34843,1.21874,8.79832,5.27289,12.94971,5.40738,13.10542,.10613,.12376,.00879,.244-.08667,.17329-.17866-.13268-.329-.24232-.50772-.39085-2.68417-2.10724-5.63994-3.84335-8.78759-5.16151-2.49962-1.07784-4.89472-2.38347-7.155-3.90038-2.61062-1.66971-4.95873-3.71797-6.96744-6.07771-.07368-.0504-.1669-.06287-.25124-.0336,.346,1.16316,.79901,2.29178,1.35323,3.37137,2.08654,4.10028,5.11718,7.64632,8.84239,10.3461,3.56966,2.73828,7.77462,4.52797,12.22276,5.20219,2.72934,.45451,5.42683,1.10551,8.14024,1.66447h.00003Zm-22.49976-18.07059c2.73459,1.82545,6.8826,4.27177,8.33831,5.20036,.00715,.00417,.01491,.00717,.023,.0089,0,0,.10082-.1769,.06367-.27246-.006-.01982-.0131-.03929-.02128-.05832-1.81484-3.59082-2.08542-7.50706-2.40375-11.46574-.27423-3.42627,.35371-7.70683,.17688-11.03581-.26831-2.75699-.84565-5.47508-1.72115-8.1031-.03723-.13209-.08334-.26151-.138-.38738-.06009,.00525-.1503,.12912-.17153,.18213-.007,.01946-.00176,.023-.0053,.04246-.36085,4.0825-1.82374,7.72285-2.35252,11.05891-.58311,3.95216-.29025,7.98419,.85784,11.81061,.06009,.16628-.10265,.207-.161,.11491-2.15274-3.27762-6.81355-8.00404-9.23517-10.50339-3.08835-3.25121-5.20572-6.27417-6.3767-10.00815-.0089-.02654-.168-.13974-.20524-.12382-.02651,.17442-.03893,.35069-.03715,.52711-.03223,5.22858,1.56675,10.33708,4.5743,14.6142,2.37217,3.33218,5.35688,6.18242,8.79479,8.39859Zm-1.43636-12.26521c.00354-.00536,.01056,.00708,.01592,.00536,.1309-.0974,.12028-.131,.0796-.44409-.32165-3.52255,.18225-7.07159,1.47168-10.36541,1.84492-5.31368,3.62786-10.7953,4.2081-16.39194,.08174-.74667,.12482-1.49708,.12907-2.24821-.0477-.02128-.20513,.07783-.21221,.09729-1.07582,2.31398-2.32832,4.54164-3.74637,6.6632-2.06961,3.25474-4.431,6.49345-4.714,10.40444-.07893,1.11885-.05586,2.24256,.06893,3.35722,.00182,.023-.03886,.12565-.12376,.10088-.03378-.01292-.05939-.04117-.06893-.07606-.24941-.95164-.536-2.0926-.9004-3.3219-1.90323-6.45448-6.46692-10.5052-6.44221-19.94031-.01228-.04234-.122-.20513-.18562-.2069-.26379,.52004-.4782,1.0637-.64038,1.62381-4.06841,13.116,4.19041,22.52979,5.82842,24.52511,1.51398,1.84314,3.97092,4.39731,5.23216,6.2175Zm-5.91144-26.07109c.88083,2.52061,2.06242,6.25106,2.31891,7.21332,.007,.03007,.16981-.04063,.18926-.11675,.70577-2.69042,3.63322-7.93324,5.464-10.39371,.13084-.17694,.26356-.35029,.39451-.52535,1.95702-2.30897,3.62939-4.84483,4.98109-7.553,.83832-1.93861,2.13671-6.10072,2.21985-6.4934,.00177-.01415-.04776-.01769-.1079-.0089-.07436-.01231-.15063,.00347-.214,.04428-.02085,.01201-.0399,.02689-.0566,.04422-.01226,.01037-.02246,.02295-.03007,.03709-1.43838,2.06689-3.12691,3.94792-5.02715,5.60022-2.41089,1.967-4.29123,3.46517-5.74523,6.35194-.15571,.30772-.34139,.734-.5254,1.1833-.4421,1.04014-.88266,2.28011-.88791,2.30482-.01592,.07959-.15383,.19634-.20336,.04427-.0408-.12912,.24222-3.53239,.267-3.99412-.00032-2.75751-.25495-5.50911-.76066-8.21985-.64587-3.4212-.59051-6.93792,.16273-10.3371,.06368-.27412,.14157-.5484,.22116-.819,.06015-.207,.1079-.36615,.17507-.57311,.01061-.03538-.04063-.19634-.10078-.21762-3.6226,4.4009-5.66922,12.45453-4.78291,18.66143,.53451,2.62586,1.21842,5.21909,2.0484,7.76702Zm5.22512-13.66078c0,.91974-.01763,1.69809-.06367,2.18806l.00354,.00349c-.00183,.01243-.00183,.02835-.00354,.04068-.00536,.05307,.14681-.0424,.14681-.0424l.03544-.03891c1.95575-2.48682,4.15598-4.77123,6.56767-6.81892,1.875-1.55128,3.849-3.04066,5.60549-4.71758,2.16771-2.3568,3.65085-5.26068,4.28946-8.39845,.02986-.13445,.0488-.2711,.05661-.4086-.07732-.00368-.15372,.01807-.21752,.06191-.2494,.32541-.5024,.64916-.74656,.97994-1.33218,1.75744-2.98804,3.244-4.87844,4.37962-3.3025,2.0837-5.61969,3.66334-7.4876,6.19457-.01409,.01946-.03007,.03886-.04416,.06014-.08491,.15389-.25295,.0796-.2016-.08142,.56775-1.83784,.81008-2.984,1.20448-4.6025,.64563-2.6656,.93926-6.18926,1.93877-8.533,.62846-1.46327,1.54526-2.78494,2.69567-3.88616,.01251-.00739,.02241-.01851,.02831-.03179,.03328-.07772,.03893-.1645,.016-.24587-.22287,.05945-.43918,.14124-.64563,.2441-3.32297,1.70176-5.92287,4.5421-7.32487,8.00223-.87218,2.11752-1.28691,4.39549-1.217,6.68454-.00172,.76414,.023,1.53006,.05837,2.29243,.09022,1.88728,.18214,4.62552,.18396,6.67389Zm7.16037-13.18861c.02542,.00944,.05304,.01128,.07949,.00531,.0145-.0094,.02815-.02005,.04079-.03184,.94275-.73053,4.71034-3.65975,6.007-4.967,1.86043-1.76893,3.48309-3.77212,4.82725-5.95925,1.44556-2.23414,3.16263-4.28038,5.11188-6.09186,.1645-.14682,.28655-.24587,.45282-.39451,.04008-.07043,.04903-.15436,.02471-.23166-3.52335,.83674-6.8217,2.43221-9.66489,4.67507-4.97052,3.93033-6.67393,11.87076-6.872,12.95324-.00179,.01597-.00704,.0425-.00704,.0425Zm55.9964,43.26786c.38921-.58549-.58183-.95518-.83479,.06186-.23714,.9464,.44394,.52181,.83479-.06186Zm10.59724-24.50212c-.37677-.19634-1.92635,1.69274-1.67863,1.99875,.6795-.55553,1.24887-1.23347,1.67863-1.99875Zm.33253-.33431c.23349,.122,1.26118-.437,1.0701-.58731-.18927-.15207-1.39728-.711-1.4221-.36969-.03531,.55548,.11676,.83496,.35201,.957Zm18.66501,16.36187c-.48643,.02122-1.01361,.72517-.86501,.73407,.35023,.01763,.61726,.26887,.89857,.2069,.51645-.11491,.45277-.96043-.0336-.94096h.00003Zm-6.76414-17.61782c-.41922,.01067-.52541,.467-.12212,.674,.34752,.07082,.70892,.01498,1.01886-.15743,.27777-.17512,.60147-.39269,.54134-.81721-.03545-.25825-.6368-.987-.32201-1.2665,.33961-.30429,.68279,.168,1.01532,.03886,.40512-.15737,.368-.38909,.38042-.734,.01581-.47754-.17517-1.10554-.72876-1.10554-.4122,0-1.12859,1.10371-1.16042,1.171-.11893,.30045-.11641,.63536,.007,.934,.24591,.57127,.15034,1.24167-.62967,1.26283h.00003Zm9.168,.07605c-.01244,.25477,.7234,2.02716,.7977,2.51s.22641,1.92982,.61555,1.78124c.24586-.09558,.22285-.98177,.16982-1.32493-.15672-1.02162-.40175-2.02773-.73232-3.007-.19633-.60146-1.04893-2.56483-1.33194-2.4959-.25117,.06025,.42274,1.42929,.5218,1.875,.02725,.22118,.01347,.44547-.04063,.66165l.00002-.00006Zm-4.84491-23.63714c.45282,.17163,.451-.67388-.31845-1.29834-.76421-.62263-1.78307-.32011-1.50713-.01227,.55135,.51146,1.16466,.95176,1.82558,1.31061Zm-20.86017-5.991c-.90919-.58732-.14853-1.3974-.87547-1.94215-.78841-.27814-1.66568-.10612-2.29066,.44918-.61385,.79427,.79243,.53071,1.30186,.75712,.56956,.25113,1.79185,1.30188,2.00935,1.08962,.21582-.21409-.04419-.26008-.14508-.35381v.00004Zm5.52594-2.78064c-1.22411-.55895-5.83366-.53425-5.71338,.665,.099,1.02422,2.66212,.062,3.32544,.00537,.66508-.05833,3.46878-.11494,2.38794-.67042v.00005Zm-13.48754,53.63499c-.06014-.22813-.45984-.191-.36079,.01951,.09911,.21044-.12028,.42453,.08485,.68808,.33136,.26783,.80309,.27368,1.141,.01416,.13512-.18523,.1067-.44292-.06551-.59428-.22107-.10973-.7394,.10077-.79951-.12747h-.00004Zm-1.77587-9.16972c.3803,0,.36615-.28473,.5872-.27412,.22288,.00884,.0408,.28838,.4263,.28838,.38212,0,.78365-.98531-.44575-.98531-1.00111,0-.86839,.95695-.56775,.97105Zm1.5955,1.01886c-.76408-.19635-.60854,.23885-1.07717,.29009-.77664,.085-.08667-.57311-.4688-.87558-.1681-.13261-.62446,.53242-.658,.9481-.02123,.19988-.02654,.8774,.30247,.89863,.329,.02117,2.05889,.21934,2.63564,.35018,.65973,.15218-.02654-1.42918-.73414-1.61142Zm-8.517,9.18215c.23526,0,.40507-.835,.26-1.24527-.14676-.41037-.90382-.10264-.971,.08845-.06553,.19276,.47397,1.15683,.711,1.15682Zm-11.16327-.08313c.03371-.35913,.00364-1.40978-.24759-1.61314-.25112-.2017-.21757,.17855-.39793,.15737-.13974-.01592-.12747-.50417-.3043-.50235-.17689,0,.06014,.8349,.24941,1.31951,.18925,.48643,.65623,1.2807,.7004,.6386Zm-.26881-2.55068c.22633-.82942,.35454-1.68253,.382-2.54184-.06014-.66691-.41557-1.29657-.50578-1.25058-.12039,.06191,.05478,.46167,.07595,1.10907-.05836,.71126-.20084,1.41308-.42447,2.09078-.00182,.30065,.28656,.98171,.4723,.59257Zm-29.80685-6.18573C23.05618,23.67175,46.76771-.01516,76.00217,0c29.23447,.01517,52.92139,23.7267,52.90622,52.96117-.01517,29.23448-23.7267,52.9214-52.96117,52.90622-14.02937-.00728-27.48205-5.58365-37.40231-15.50392-9.96327-9.91396-15.54607-23.40193-15.50391-37.45724Zm16.314,35.048l5.75407-5.75407c-1.13232-1.1947-2.19535-2.45322-3.18388-3.76936-.46577-.16248-.88226-.44135-1.20989-.81013-.49174-.61385-.74994-1.51237-.98354-1.51237-.2352,.00177-.01934,.57127-.543,.6474-.71285,.10431-1.71927-1.668-2.112-2.31366-.46344-.7606-1.2241-.76768-1.59732-1.48058-.10785-.20512-.36616-.83484-.6049-.46162-.39445,.63326-1.74762-1.37975-2.09255-1.24173-.35559,.13792-.0425,.55713-.24238,.73399-.38733,.345-1.52647-1.54237-1.95276-1.34958-.39976,.18219-.49174,.42458-.51479,.92511-.02117,.52,.62263,1.85728,.39622,1.96165-.32182,.1468-1.96867-4.04707-1.6096-4.23817,.2016-.10789,.16981,.19109,.39794,.05482,.23531-.14149-.16445-.4316-.27229-.88625-.11321-.47576-.52541-.48643-.56079-1.00995-.03178-.52187,.7128-.3467,.70406-.60147-.02316-.27025,.07537-.53675,.26876-.72694,.24592-.21232,.8208,.01056,.94462-.72529,.10613-.62788,.42275-.04587,.48826,.421,.07606,.54121,1.45924,.67741,1.52646,.306,.04063-.23526-.559-.22642-.559-.43514-.00172-.39976,.76066-.01769,1.2807,.02825,.22641,.01945,.63507-.3467,1.15152-.07955,.3974,.23396,.8307,.4007,1.28242,.49351-1.28002-3.90771-1.98375-7.9811-2.08898-12.09177h-8.105c.2435,12.6692,5.25631,24.7805,14.03766,33.91592v-.00002Zm33.433-46.95061c.0566,.08668-.5306,.62092-.83131,1.13925,.93723-.35217,1.91676-.57938,2.91331-.67575v-8.1261c-4.40964,.2533-8.6031,1.99426-11.89552,4.93857l5.73638,5.73644c.66183-.5439,1.38204-1.01259,2.14738-1.39745,.19988-.099,.40148-.191,.605-.27765,.39274-.6863,1.25057-1.4505,1.32481-1.3373h-.00005Zm-20.02865,30.29693c.0051,.15782-.00798,.3157-.039,.47052,.42105,.51649,.85088,1.02415,1.3037,1.51231l5.747-5.74694c-2.76234-3.05621-4.60278-6.83216-5.30832-10.89087-.15636,.06589-.33729,.00431-.421-.14328-.11669-.20159,.05312-.40678,.30081-.612-.08314-.6102-.14328-1.22753-.17518-1.852h-3.826c.039,.60854,.283,1.48584-.11856,1.79185-.33072,.25123-.79947-.00354-1.09846,.03715-.734,.09905-.90211,.98525-.70749,1.58671,.1748,.35889,.25517,.75645,.23349,1.15506-.0655,.41032-.28837,.73048,.36079,1.07364,.59439,.31137,1.55665,1.53182,1.47705,1.74237-.10259,.27063-.69339-.25295-.73048,.237-.023,.30065,.872-.085,.82069,.93389-.01849,.56368,.08029,1.12506,.29009,1.64857,.43103,.71609,.68003,1.52689,.72523,2.36147-.12939,.80364-.06818,1.62645,.17871,2.4021,.35726,.7677,.98344,1.38852,.98697,2.29245h-.00005Zm-4.7776-13.67143c-.47234-.54127,.31308-2.08017,.42977-2.38265,.12565-.32016,.83849-.7323,1.05247-1.20818h-3.405c.06573,1.76408,.2859,3.519,.65795,5.24465,.81728,.29899,2.38808-.36787,1.26481-1.65382Zm-2.13683,21.89661c-.02615,.01389-.05333,.02571-.08131,.03539,.30956,.35194,.625,.69803,.94633,1.03825l.64917-.64917c-.60854-.38388-1.16921-.62617-1.51419-.42448v.00002Zm13.92622-41.24965l-5.73108-5.731c-4.8818,5.24406-7.71404,12.0694-7.97934,19.22913h4.01535c.67216-1.08249,.444-1.90683,.66862-2.53654,.242-.59251,.5443-1.15855,.90212-1.68919,.29539-.47582,.63153-1.01179,1.25063-1.01532,1.30889-.00708,1.63431-.69168,2.464-1.07193,.82953-.3803,2.29774-.605,2.13141-1.03837-.11321-.2918-3.0636,.85259-3.12727,.62971-.1115-.39086,.93036-.35377,1.36909-.75,.07516-.0696,.16042-.12743,.25289-.17152,.9405-2.14115,2.21787-4.11784,3.78358-5.85497Zm-1.033,5.36321c.08105-.0346,.16017-.07357,.237-.11675,.87257-.45712,1.89477-.53516,2.82662-.2158,.72443,.39793,1.40453,.8717,2.02887,1.41331,.17865,.13615,.2635-.1168,1.09846-.24233,.34846-.05135,.42811,.29894,.92511,.36969,.17017,.02703,.34274,.03593,.51479,.02653l-4.99535-4.99346c-1.02126,1.14654-1.90572,2.40796-2.63552,3.75885l.00002-.00003Zm-5.625,6.17146c-.63912-.08073-1.26824,.21051-1.62021,.75005-.22881,.36025-.30934,.79508-.2247,1.21338h2.89919c.02837-.54835,.07778-1.09139,.14511-1.62735-.3759-.1844-.78242-.29832-1.19941-.3361l.00002,.00002Zm8.26236,16.12313l5.73992-5.74174c-.46891-.57231-.88178-1.18832-1.23295-1.83955l-.00171,.00353c-.08475,.09349-.15617,.19823-.21226,.31127-.11846,.25648,.03537,1.11089-.32017,1.477-.45818,.474-1.68919-1.04362-2.0784-1.16921-.32243-.08315-.65121,.11082-.73437,.43324-.01267,.04914-.01909,.09969-.0191,.15043,.0707,.4369-.01774,.61207-.20878,.651-.19109,.03715-1.15335-.61738-.7234-.78183,.50052-.18927-.131-.62092-.34681-.78891-.3714-.28655-.95153-.01946-1.224-.39976-.26481-.33569-.61395-.59511-1.01178-.75176-.32884-.15149-.70133-.17912-1.04893-.07783-.29009,.1556-.60318-.161-.8208-.37323-.12023-.11674-.24051-.25294-.36787-.38561,.67429,3.45273,2.26736,6.65966,4.61137,9.28294l.00002,.00002Zm5.74517-9.91446c.00182-.04953,.00536-.10077,.01072-.15212,.00171-.01416,.00171-.02825,.00354-.04069,.00348-.03886,.00873-.07777,.01227-.11674,.00326-.01637,.00562-.03291,.00708-.04953l.01072-.07424c.00319-.0134,.00553-.02699,.007-.04068,.00171-.01415,.00525-.03007,.00707-.04417,.0089-.05312,.01949-.10446,.03179-.154v-.00353c.01072-.04771,.023-.09547,.03726-.13974,.00348-.01592,.00873-.02825,.01227-.04235,.01072-.03189,.01951-.062,.03189-.092l.01592-.04245c.01098-.02718,.02338-.05377,.03715-.07966l.016-.03355c.01768-.03211,.03777-.06284,.06009-.09192,.07024-.08504,.18306-.12222,.29009-.09558,.23022,.06979,.46405,.12704,.70046,.17153,.19711,.01543,.38764-.07476,.50064-.237,.06999-.0892,.12989-.18587,.1786-.28827,.04507-.08559,.07216-.1795,.0796-.27594,.00121-.03581-.00543-.07146-.01946-.10442-.0425-.08667-.15925-.11492-.3892-.03532-.0477,.016-.09369,.03179-.14145,.04422-.09102,.02659-.1848,.04259-.27948,.04771-.04374,.00218-.08759-.00019-.13084-.00708-.12977-.01469-.24733-.0834-.32381-.18927-.02911-.04257-.0534-.08826-.07241-.1362-.0243-.06274-.05642-.12217-.09558-.17688-.15553-.18887-.35135-.34055-.5731-.44393-.11637-.06593-.22649-.14233-.329-.22824-.05579-.04781-.10783-.09982-.15566-.1556-.04069-.046-.07965-.09021-.12028-.13266-.016-.01592-.03178-.03007-.04776-.04422-.02653-.02654-.05135-.05136-.0796-.07606-.01946-.01775-.04063-.03538-.06014-.05136-.023-.01934-.046-.03714-.069-.05478-.02471-.01945-.04776-.03543-.07258-.05306-.01946-.01244-.04063-.02653-.0618-.039-.02614-.01759-.05335-.03352-.08148-.0477l-.05306-.02654c-.03007-.01415-.06186-.02835-.09187-.04068-.01427-.00531-.02836-.00885-.04251-.01421-.03543-.01061-.0707-.02294-.10613-.03007l-.02123-.00354c-.30654-.05348-.61909,.05407-.82782,.28485l-.01061,.00884c-.04567,.04533-.08878,.09316-.12913,.14328l-.01415,.01586c-.04245,.05489-.085,.11149-.1273,.177-.00231,.00603-.00598,.01144-.01073,.01581-.0424,.06721-.08482,.13976-.1273,.21762-.09774,.1808-.18285,.36816-.25471,.56072-.658,1.72281-1.42039,1.19569-1.2948,1.80959,.01415,.07242,.19988,.12194,.4688,.14323,.10784,.00879,.23,.01415,.35725,.01415,.12913,0,.2671-.00354,.40512-.01239,.13974-.00707,.28119-.01951,.41911-.03714,.069-.0089,.1362-.01946,.2017-.03007,.04069-.00536,.07778-.01244,.11675-.01946,.03714-.00707,.07424-.01415,.11149-.023l.09723-.02123c.04251-.01061,.08137-.023,.12029-.03361,.0247-.00707,.04952-.0142,.07075-.02128,.05734-.01759,.11349-.03886,.1681-.06368,.08712-.03993,.17624-.07536,.267-.10613l.00879-.00171c.08204-.02746,.16602-.04874,.25123-.06368,.14964-.03432,.30561-.02944,.45282,.01415,.16489,.05486,.30803,.1608,.40866,.30247,.1258,.19579,.20728,.41673,.23871,.64732l.00002,.00002Zm7.74937-24.94611v-8.10838c-7.16035,.26486-13.98638,3.0971-19.23095,7.97923l5.73285,5.73108c3.71973-3.36646,8.48776-5.34527,13.4981-5.60194Zm0-10.37436V12.59064c-9.91032,.27239-19.37019,4.19848-26.561,11.02348l5.731,5.72925c5.66933-5.30589,13.0697-8.37701,20.83-8.64437v-.00004Zm-28.16187,4.51416c-6.82391,7.19123-10.74874,16.65112-11.01995,26.561h8.10665c.26802-7.76015,3.33905-15.1603,8.64437-20.83l-5.73107-5.731Zm-11.01996,28.8252c.11016,4.10146,.8493,8.16171,2.19161,12.03886,.04782-.00354,.092-.00536,.13974-.00708,.83521,.06618,1.67382-.07541,2.441-.41214,.79781-.61556,.06014-2.81778,.56078-3.73581,.61733-1.13561,2.15971-3.82956,2.62326-3.84731,.41032-.01586,.39269,.29015,.60135,.33962-.24901-1.44682-.39913-2.90891-.44934-4.37614h-8.10841Zm39.18182,41.4477c-10.51067-.27191-20.5462-4.43588-28.16187-11.685l-5.754,5.75407c9.13605,8.78014,21.24708,13.79219,33.91589,14.03583l-.00003-8.1049Zm0-10.37071c-7.128-.23029-13.97436-2.83723-19.45028-7.40623,.11561,.13705,.22087,.28253,.31491,.4352,.37317,.6438,1.6715,1.9528,.84551,2.47639-.68632,.43336-1.82374,.14145-2.46053,.13089-.70223-.0089-1.72286,1.03999-2.32421,1.14445-.64687,.14003-1.32185,.06357-1.921-.21762-.23051-.10732-.44923-.23831-.65265-.39085l-.91273,.91267c7.19145,6.82379,16.65106,10.74915,26.561,11.02171l-.00003-8.10661Zm0-2.84962c-1.09563,.13852-2.20776,.06219-3.2742-.2247-.85076-.589-1.86437-1.16739-1.97929-1.62375-.20524-.8102-1.31425-1.41862-1.31425-2.17744,0-.8438,1.16561-1.11974,.85435-1.97588-.24941-.68095,.41391-1.53352,1.6274-2.12791-3.50189-.86377-6.73546-2.5811-9.41211-4.99872l-5.74346,5.74345c5.24369,4.8882,12.07713,7.71693,19.24156,7.96513v-.58018Zm1.75293-10.83421c.86314-.1451,1.77946-.39452,2.55769-.47227,.85258-.08492-.03532,1.12852,.47057,1.17805,.60489,.06013,3.0919,.4846,3.26707-.07961,.14328-.46344,.17688-.67216,.71114-.78714,.94101-.05692,1.85349-.34488,2.65671-.83842,.30783-.23526,.9429-.32016,1.125-.66862,.18225-.34853-.13084-1.99709-.74463-1.72816-.29893,.13266-.65971,.55895-1.29832,.88094-.57841,.28999-.98878,.42264-1.39911-.12747-.37505-.50053,.21922-.89321,.52705-1.2293,.47581-.52186,.90736-1.05075,1.43631-1.05075,.20518,0,1.29834-.543,1.20641-1.04-.12039-.64386-1.39037,.05837-1.68578-.207-.20512-.18225-.00354-.64563-.1628-.71639-.14853-.069-.61726,.57129-.25465,.91809,.1875,.18037-.30429,.68272-.85612,.32182-.42451-.28119-.53426,1.26655-.4971,1.54957,.03725,.283,.62263,.20513,.2336,.71456-.39101,.513-.536,.13272-.82434,.38384-.34669,.3043-.42447,.421,0,.86143,.33961,.35023-.19987,1.01538-.32553,.39275-.08313-.41391-.95335-.28831-1.1178-.75707-.16982-.48289-.87741-.43513-1.73708-.87558-.651-.33437-.56786,.65271,.536,.90383,.93744,.2141,.88972,.32552,.62082,.91273-.21935,.48119-.17683-.36969-1.29128-.66499-.71638-.18925-.74992-.57133-1.31419-.56431-.57133,.00536-.3839,.54658-.98708,.40511-.45631-.108-.52705,.5076-.948,.68631-.51308,.21935-.48289,1.14799-1.00478,1.40446-.77647,.38029-2.36855,.09375-2.29601-.6757,.07251-.76945,.108-1.34433,.5537-1.615,.39258-.23526,1.03999,.45454,1.58488,.21049,.56956-.25294,.42628-.85966,.08131-1.24881-.10258-.13266-.52-.33962-.51125-.47051,.0089-.161,.8208-.23708,1.23119-.513,.38249-.36626,.73834-.75938,1.06483-1.17634,.22459-.17506,.66508-.21934,.70578-.382,.05659-.207-.31139-.58377-.27596-.83672s.12376-.44746,.32018-.43331c.19633,.01592,.42976,.582,.30429,.71815-.14326,.15389,.10249,.41391,.36969,.30419,.26875-.10967,1.22221-.48284,1.49992-.55542,.37671-.10077-.09375-.95335,.02837-1.10553,.11491-.14328,.22641,.046,.3714-.099,.145-.14505-.29716-.28832-.22641-.59787,.05135-.23349,1.04893-.50413,.77477-.68107-.27412-.17859-.64381,.33791-.86314,.43514-.49715,.21939-.73938-.32364-.72357-.73584,.0089-.19983,.27948-.90737,.04251-1.04539-.32906-.18927-.38383,.6527-.4352,.81726-.20203,.39722-.17429,.87249,.07259,1.2435,.19633,.36616,.0955,1.60607-.28656,1.74227-.40683,.14681-.58554-.62971-.77652-.94982-.02316-.04635-.05786-.08595-.10077-.115l-.01073-.0053c-.01538-.00732-.03244-.0104-.04941-.0089h-.00183c-.01981,.00373-.03819,.01292-.05305,.02653l-.01414,.01244c-.02237,.02103-.04199,.04478-.05843,.0707-.03178,.04958-.08315,.1362-.12547,.21049-.06606,.12737-.12169,.25986-.16634,.39622-.03888,.13345-.15109,.2326-.28831,.25477-.41931,.048-.84096,.07279-1.263,.07424-.16457,0-.32899-.00354-.49174-.01056,.05566,.24339,.13445,.4809,.23526,.70931,.22464,.42452,.65442,.76768,.582,1.08077-.07259,.3148-1.38499,.59964-1.493,.36969-.13443-.28656,.33072-.86143,.29356-1.12145-.06715-.47406-.306-.75707-.27594-1.08608-2.25291-.22469-4.38843-1.11303-6.136-2.5525l-5.74174,5.74174c2.89205,2.58393,6.48721,4.24943,10.32832,4.78474,.55542-.33961,.78354-.9464,1.22227-.61739,.69875,.52719,1.54073-.1768,2.09792-.27055v.00002Zm.5112,13.68201v8.10841c3.21725-.08867,6.41223-.56314,9.5164-1.41325-.63324-.5378-.92157-1.40977-1.70517-1.67863-1.34785-.46344-1.71048-1.29309-.9817-2.4959,.39439-.64917,.23885-.90565-.22289-1.59727-.44664-.65573-1.07936-1.16275-1.81667-1.45576-1.58107,.29723-3.18224,.47519-4.78998,.53238v.00003Zm3.89153-2.66737c-.33499-.26277-.7795-.33986-1.18341-.20525-1.31786,.35736-.8773-.68985-2.70811-.42276v1.03122c1.3045-.05037,2.6044-.18506,3.89153-.40323v.00002Zm30.0226,7.10899l-5.75407-5.75407c-2.98126,2.82869-6.35429,5.21339-10.01524,7.0807-1.19165,.83115-2.46971,1.53094-3.81187,2.08719-.46321,.26692-.97719,.43384-1.50883,.49001-.16727-.00339-.32999-.05499-.46864-.14859-3.98775,1.33418-8.15186,2.06743-12.35547,2.17563v8.10493c12.66838-.2433,24.77898-5.25542,33.91418-14.0358h-.00005Zm-11.34354-58.6233c-.00761,.03911-.03142,.07318-.06551,.0938,1.33714,1.44568,2.54018,3.00986,3.59425,4.67325,.12393-.15737,.22118-.29711,.39268-.10077,.28654,.32718-.29883,.92157,.55022,.76591,.51114-.09375,.40678,.56067-.00719,.911,.26184,.47217,.51479,.94981,.75359,1.43442,.29887,.13449,.5253,.29723,.57129,.4918,.19354,.59943,.34718,1.21102,.4599,1.83076,.408,1.02601,.76343,2.07215,1.0649,3.13435,.4175-.35725,.888-.16274,.93748,.43337,.02293,.61665-.11482,1.22866-.39977,1.776,.36993,1.77779,.58829,3.58376,.65271,5.39848h8.10658c-.14871-5.24422-1.31349-10.40977-3.42979-15.2103-.1609,.12913-.37671,.13974-.64917,.48472-.41031,.51817-1.07362-.12918-1.438-.582-.67924-.83844-2.2784-3.19632-2.99826-3.31489-.60146-.099-1.05075-.88083-1.68401-1.00995-.63136-.12913-1.42033-.48472-1.52292-1.15335,.00089-.58814-.47147-1.06759-1.05956-1.07546-.73987-.10036-1.4178-.46697-1.90681-1.03119l-1.94043,1.94049c.01616,.0341,.02234,.07208,.01781,.10956Zm5.14552,49.22363l.44392,.44392c6.82576-7.1902,10.75143-16.65062,11.0217-26.56107h-8.10657c-.26764,7.76077-3.33868,15.16159-8.64432,20.8318l2.92561,2.92563c.02129-.0407,.04063-.08131,.06009-.12199,.1566-.53644,.2171-1.09636,.17871-1.65387,.0247-.30779,1.14101-.23349,1.22057,.27411,.18576,.61604,.41142,1.21935,.67558,1.80606,.29544,.64275,.37431,1.364,.22476,2.0554h-.00006Zm-6.15559,5.05885c-.214,.51479-1.29834,1.4416-1.11078,1.74591,2.18385-1.38869,4.23022-2.98257,6.11131-4.75999l-5.73108-5.72931c-.39977,.37328-.8119,.7323-1.23112,1.08614-.09911,.65623-.0089,1.17091,.79781,1.42033,.87022,.26892,2.32245,1.15335,2.01643,2.01118-.34315,.76775-1.1922,1.91743-1.60257,2.67987-.34851,.65091,1.00826,.92859,.75,1.5459v-.00003Zm1.33725-33.54272c-.01465,.03674-.0343,.07126-.05843,.1026h5.96992c-.03185-.86144-.10435-1.714-.207-2.55771-.04776,.08844-.09911,.17689-.13974,.26356-.44576,.92693-.513,.36792-.48106-.03532,.0753-.52444,.21983-1.03658,.42982-1.523-.04601-.276-.09558-.5484-.15034-.82074-.22153,.28085-.51144,.50011-.842,.63678-.2635,.13438-.51291,.7553-.61031,.99233-.11491,.28655-.77116-.06722-1.31065,.1928-.94627,.45637-1.91573,.52535-1.224,1.50529,.44218,.62432-1.0596,.44926-1.37622,1.24342v-.00002Zm-2.06779-19.12653l-5.731,5.731c.98793,1.09704,1.86316,2.29053,2.61253,3.56252,.84653,.08849,1.62791,.49498,2.18629,1.13737,.41922,.54121,1.6291,1.62375,1.44333,2.10847-.1132,.29711,.13972,.66508,.41573,.8596,.42276,.29546,.72169,.28838,.95335-.007,.42274-.5395,.483-1.26826,1.04367-1.72816,.68633-.566,2.0925,1.06838,2.09079,1.36732-.00183,.29888-.36444,.36969-.46875,.90034-.14145,.72523-.76408,1.5902-.05659,1.83248,1.03123,.352,1.16212-.053,1.65741-.77824,.22813-.33437,.17871-.87387,.42447-1.20459,.17076-.17916,.37202-.32652,.59439-.43519-.38239-1.59388-.89592-3.1534-1.53535-4.66264-.15408-.15571-.34245-.27322-.55006-.34315-.3698-.12206-.161-.45283-.64563-.60495-.55548-.17506-.77129-.33431-.82253-1.309-.04079-.78537,.66327,.25825,.83833,.12205,.04137-.0373,.0766-.08087,.10442-.12913-1.23087-2.32977-2.76221-4.48789-4.55478-6.41909h-.00002Zm-6.9534,7.78117c-.23779-.00187-.47328-.04681-.69505-.13267l-1.8945,1.89273c.36267,.09723,.76414-.03726,1.217,.16445,.50418,.22105,.25826-1.408,1.02942-1.25942,.78719,.15035,.98878,.65624,.33791,.90211-.5218,.16981,.1292,.60489-.50235,.819-.57494,.19634,.467,.704,.45819,.93041-.01073,.31309-.78543,.42983,.37848,.78891,1.16208,.35908,.00348-.97823,.18036-1.16567,.21587-.22824,.83673,.36079,1.0083,.10082,.06363-.09557,.17867-.26173,.32011-.45282-.54172-.91084-1.15634-1.77629-1.83786-2.58785Zm-2.95393,30.0917c.0141,.39799-.38737,.07954-.50943,.21574,1.16269,.73254,2.40695,1.3268,3.7075,1.77068,.72711,.20129,1.49168,.22675,2.23058,.07423,.80299-.15913,1.02588,.21056,1.40082,.19635,.53426-.01941,.88094-.7411,1.19049-1.18513,.82069-1.17093,.66508-1.32829,.88264-1.51054,.27766-.23349,1.0843,1.55836,.98172,2.694-.01764,.18042-.03893,.34846-.06367,.50943l.08667,.08667c4.88213-5.24459,7.71439-12.07064,7.97929-19.231h-6.16273c.35875,.51147,.68204,1.04691,.96761,1.60258,.31126,.64038,.49535,1.65742,1.01886,1.707,.84369,.0796,1.71225,.77829,1.73708,1.3655,.04953,1.22763-3.75887,1.52475-4.25951,1.36737-.42094-.13266-.70042-.161-.72865,.49882-.03189,.74817-1.37622,.75353-1.90517,1.201-.59428,.50236-.65973,1.42045-1.05772,2.06071-.61052,.72455-1.29002,1.38805-2.02893,1.98112-.91621,.64038-2.64084,.67216-1.85193,1.09492,.5625,.30081,1.83966,.40683,1.67859,.10972-.18391-.34139,.09727-.37323,.31308-.09375,.16634,.21044,.76591-.20342,.75365-.589-.01244-.36438-.092-.95871,.24576-.98176,.5484-.03533,1.125-.64381,1.39745-.58721,.30956,.06368,.72878,.75176,.41386,2.8478-.26137,1.51175-.84535,2.94943-1.7122,4.21523-.43153,.70399-.8632,.16628-1.4416-.13089-.85707-.26875-1.73265-.47449-2.61972-.61555-.41029-.13274-2.65668-.9836-2.64435-.67401h-.00002Zm38.62817-16.37959h-8.1031c-.27339,10.5107-4.43787,20.54593-11.68678,28.16188l5.75407,5.75407c8.78157-9.13513,13.79385-21.24677,14.03581-33.91595Zm-14.03583-36.17822l-6.00348,6.00342c.86795,1.33119,1.8884,2.55646,3.0406,3.65091,.59793,.6102,1.233,1.20813,1.76543,1.74763,.51114,.51473,3.78523,4.5884,3.15199,5.17914-.04601,.04427-.09546,.085-.145,.12559,2.55753,5.38605,3.9613,11.24711,4.12135,17.20738h8.10493c-.24165-12.66869-5.25403-24.77984-14.03583-33.91406Zm-35.515-7.53359c6.67389,.16019,13.21544,1.89542,19.09126,5.06422,.49074-.04683,.97375-.15437,1.438-.32016,.72176-.33608,2.1403,.428,2.82491,.826,.62434,.36079,1.10907,.895,1.79539,1.28059,.99367,.60734,1.73239,1.55548,2.07834,2.66749,.24947,1.14085,.97287,1.06307,.61208,1.5248-.18042,.2299,.09552,.31834,.44038,.52352l5.6356-5.63378c-9.13516-8.78155-21.24678-13.79385-33.91595-14.03587l-.00002,8.10319Zm0,10.37249c6.64784,.22861,13.0598,2.52031,18.34651,6.55724-.58012-.76774-1.1675-1.562-1.4399-1.85382-.49699-.52888-2.35788-1.17987-2.17027-1.48229,.18562-.3043,1.84137,1.01709,2.13141,.78531,.3484-.27937-.83136-1.79709-.74286-1.85552,.90544,.65797,1.65787,1.50397,2.2057,2.48,.28654,.42629,1.04721,.21044,1.63979,.62264,.5217,.36615,.55713,.95164,.9958,1.3284,.07076,.06191,.9994,.59793,.45992,.536-.15565-.01769-.39452-.34852-.5731-.18043-.11143,.10613,.06721,.6757,.38737,1.29834l2.69225-2.694c-.39101-.79245-1.16212-1.83784-1.69992-1.9705-.55542-.1362-.8968,.33078-1.27888,.64734-.38206,.31663-.85966,.42276-.91974,.2105-.00279-.35969,.01373-.71926,.04951-1.07718-.039-.30955-.2813-.55365-.36267-.85258-.19279-.70406,.09375-1.48932-.33437-1.95641-.43791-.5917-.82376-1.2202-1.15324-1.87846-.56969-.72765-.96867-1.57396-1.1675-2.47645-5.30096-2.67632-11.12952-4.14371-17.06581-4.29648v8.10834Zm0,10.37436c5.01025,.257,9.77818,2.23576,13.49809,5.6019l5.73289-5.73108c-5.24478-4.88182-12.07072-7.714-19.231-7.97923l.00002,8.10841Zm0,10.392c.76997,.07677,1.53026,.23082,2.26938,.45984,.19279-.47228,.6757-.70748,1.07191-.97635,.4688-.31844,.80843-.67752,.7412,.18745-.02475,.47943-.25406,.92519-.62971,1.2241,.79716,.34645,1.55255,.782,2.25175,1.29833,.15384,.11492,.30418,.23521,.45284,.35731l.77829-.77835c-.00868-.0281-.01343-.05727-.01408-.08667,.01408-.4421,.6544-.96933,1.39378-1.293l2.52763-2.52768c-.05661-.01239-.11845-.023-.19099-.0319-.33961-.04234-.82253,.66161-1.15324,.46709-.37334-.21768,1.11609-1.53011,1.78123-1.27717,.09021,.03361,.18916,.07253,.29181,.11321l.32193-.322c-3.29176-2.94425-7.48465-4.68523-11.89375-4.93857l.00003,8.12436Zm-1.13206,2.20752c-.93448-.00138-1.86372,.13936-2.75587,.4174-.11674,.12741-.20524,.23354-.13791,.329,.22287,.32553,.90211-.35725,.99226,.27075,.06721,.45631-.75175,.12022-.67747,.45631,.06007,.26881,.62794,.15742,.64209,.52711-.05237,.4567-.27232,.87774-.61726,1.1816-.36444,.23348-2.30664,.49-2.49237,.941-.14247,.39496-.35855,.75932-.63679,1.07375-.33071,.34852-1.88918,1.27351-1.89272,1.51413-.00879,.5678,.74828-.15566,.95872-.37853,.33436-.35377,.79427-.35206,1.29485-.63856,.6898-.39274,.95518,.98172,.2158,1.03124-.46173,.03179-.85076,1.32841-1.57428,1.079-.18213-.06368-.69692-.38212-.80842-.05306-.11845,.35018,1.07546,.40506,1.45052,.6527,.95335,.62971-.72346,.58549-.99233,.757-.26538,.16981-.13443,.536,.22824,.38743,.35017-.1451,.826-.51125,1.04356,.08314,.29363,.80477-1.32486,3.74106-1.79538,3.43151-.25648-.168-.52181,.07081-.76237,.17335,.3228,.66285,.72298,1.28513,1.1922,1.85381,.31845-.5254,.82069-1.26832,1.033-1.27357,.30065-.00885,.19988-.24587,.31309-.45814,.13974-.25648,.497,.01239,.52181-.33785,.02471-.34846,.91626-.849,1.01886-1.362,.05306-.276-.276-.55022-.13974-.77835,.08999-.19029,.26086-.32997,.46526-.3803,.17854-.06191,.6013,.359,.73048,.17689,.12913-.18219,.75883-.04246,1.23991,.26173,.21935,.13974,.64563-.02117,.90747,.35023,.36263,.51126-.01768,.55542,.04771,.66863,.06367,.11321,.22116-.06368,.31662,.03007,.20354,.19817-.9445,.87033-.81361,1.23648,.12912,.36439-.97287,2.16861-1.27534,2.45517-.41568,.37853-1.102-.04422-1.37263,.03361-.29186,.08313-.34847,.33254-.79775,.22287-.39783-.04634-.79998,.03745-1.14622,.2388,2.05843,1.82472,4.8308,2.6223,7.5442,2.17038,.27899-.39482,.44695-.85725,.48637-1.33908-.0087-.28386,.0351-.56689,.12918-.83484,.11845-.19817,.87193-1.125,1.1727-1.11261,.26357,.01061,.444,.24228,.82423,.12382,.73766-.23177,1.194-.03538,1.2011,.283,.01056,.444-.92865,.31662-.88972,.566,.0247,.17506,.70576,.43873,.92865,.184,.31015-.3262,.40636-.80108,.24763-1.22228-.29546-.37322-.27771-.52711,.14682-.38212,.2618,.09021,.25999-.94275,.50943-1.339,.33961-.53242-.62788-.15925-1.03119-.10265-.38042,.05312-.69521-.75883-.70406-1.04356-.00708-.20519,.72169,.72522,1.08955,.74463,.45366-.034,.82796-.36837,.91273-.81533,.0089-.35388-.79245-.40159-.91444-.83142-.06715-.23531,.65088-.00182,.5961-.23349-.04601-.20341,.07259-.69344-.38025-.888-.45111-.1928-.86501-1.638-1.22592-1.73707-.32016-.08667-.5872,.3467-.78355,.5059-.19456,.15748-.50589-.11492-.34315-.26528,.36229-.28359,.66217-.63887,.88094-1.04362,.18744-.61208,.97453,.03184,.83479-.82251-.1503-.92517-.93925-.74646-.57306-1.19221,.24147-.25726,.22865-.66157-.02861-.90303-.17087-.16037-.41582-.21432-.63824-.14059-.35201,.06721-.72169-.50589-.75883-1.00117-.02299-.2724-.80489-.23-.77481-.51833,.062-.589-.82069-.65088-1.36018-.6102-.65947-.13928-1.25595-.48872-1.69992-.99586-.11491-.20524-.86485,.18042-.61728-.612,.24409-.78007,.98343,.1415,1.2948-.08314,.2301-.14176,.30803-.43943,.1769-.67576-.06012-.00163-.11855-.00694-.17686-.00694h-.00002ZM40.95409,16.25924l5.754,5.75407c7.61547-7.24966,17.65098-11.41426,28.16187-11.6868V2.22332c-12.66914,.24205-24.7807,5.25437-33.9158,14.03592h-.00006Zm-15.63669,35.51493h8.10494c.27238-10.51002,4.43632-20.5448,11.685-28.16l-5.75408-5.754c-8.78038,9.13513-13.79253,21.24567-14.03586,33.914Zm177.86771-13.53266h10.39746v33.16456c0,5.85059-1.81934,10.28386-5.45801,13.2998-3.63867,3.01758-8.24478,4.52637-13.81836,4.52637-5.64256,0-10.2718-1.50879-13.8877-4.52637-3.61525-3.0166-5.42287-7.44987-5.42285-13.2998V38.24152h10.39746v33.16456c.00002,3.31642,.78908,5.72299,2.36719,7.21973,3.84395,2.9948,9.23125,2.9948,13.0752,0,1.56543-1.49609,2.34863-3.90266,2.34961-7.21973V38.24152Zm32.99414,20.313c-2.6235-.11902-5.08237,1.27866-6.32227,3.59375v26.39258h-9.9834V51.16193h9.36133l.3457,4.28418c2.58356-3.27625,6.57446-5.12425,10.74414-4.9751,3.16806-.14262,6.25882,1.00396,8.56738,3.17823,2.16406,2.11914,3.24643,5.81576,3.24707,11.08984v23.80176h-10.01855v-23.83693c0-2.39452-.51236-4.01823-1.53711-4.87109-1.27286-.92921-2.83173-1.38167-4.4043-1.27831Zm22.14844-17.06592c-.04129-1.39696,.5108-2.74609,1.51953-3.71338,2.36523-1.95768,5.78809-1.95768,8.15332,0,2.02606,2.04773,2.02606,5.34485,0,7.39258-2.36523,1.95768-5.78809,1.95768-8.15332,0-1.00427-.95615-1.55643-2.29305-1.51953-3.6792Zm10.63965,9.67333v37.37891h-10.01758V51.16193h10.01758Zm26.69922,37.13673c-1.93845,.64032-3.96939,.95578-6.01074,.93359-2.82999,.14883-5.6138-.76274-7.80762-2.55664-1.93457-1.7041-2.90201-4.53677-2.90234-8.498v-19.72662h-5.49219v-7.28905h5.49219v-9.22412h9.98438v9.22412h6.35645v7.28906h-6.35645v18.68946c0,1.56639,.32227,2.60286,.9668,3.10938,.84491,.56444,1.85364,.83174,2.86719,.75977,.5484,.00285,1.0965-.02585,1.6416-.08594,.49512-.05762,.91537-.12109,1.26074-.19043v7.56543Zm35.7959-5.83789c-1.45959,1.93208-3.32199,3.52356-5.45801,4.66406-2.802,1.49179-5.94769,2.21869-9.12012,2.10742-5.82715,0-10.37564-1.7679-13.64551-5.30371-3.24329-3.46234-5.00409-8.05569-4.90625-12.79881v-1.34766c0-5.64161,1.57196-10.27052,4.71582-13.88672,3.14355-3.6162,7.38705-5.42431,12.73047-5.42432,5.36523,0,9.45312,1.68148,12.26367,5.04444,2.80957,3.3623,4.21454,7.80696,4.21484,13.334v4.249h-23.80273c.24948,2.22476,1.26279,4.29414,2.86719,5.85545,1.68588,1.53117,3.90952,2.33243,6.18457,2.22852,3.50269,.13869,6.85806-1.41689,9.01562-4.17969l4.94043,5.45801Zm-15.75293-23.94044c-1.88229-.10504-3.7027,.68973-4.90527,2.1416-1.23563,1.63117-2.01126,3.56385-2.24609,5.59668h13.8877v-.75976c.02173-1.80564-.56897-3.56538-1.67578-4.99219-1.07031-1.32423-2.75714-1.98634-5.06055-1.98634Zm45.14746,30.02052l-.4834-3.97266c-1.10883,1.41525-2.50378,2.5806-4.09375,3.41992-1.69574,.85696-3.57605,1.28419-5.47559,1.24414-4.28018,.17473-8.35025-1.86049-10.77832-5.38963-2.55566-3.59277-3.83368-8.10678-3.83401-13.54201v-.72559c0-5.68848,1.27798-10.29461,3.83401-13.81836,2.48392-3.4894,6.56888-5.47985,10.84766-5.28565,3.45218-.08413,6.75607,1.40276,8.98242,4.04248v-19.03564h10.01758v53.063h-9.0166Zm-14.64648-18.24023c-.07611,2.63994,.46808,5.26093,1.58887,7.65234,1.0206,2.08669,3.21133,3.3392,5.52734,3.16016,2.76245,.1651,5.34753-1.36678,6.5293-3.86914v-14.82032c-1.14261-2.50456-3.71265-4.04386-6.45999-3.86914-2.32611-.16036-4.51788,1.10305-5.54492,3.19629-1.16214,2.44022-1.72461,5.12272-1.64062,7.82423l.00003,.72559Zm87.67676-32.05908v50.29932h-10.36328l-20.1748-33.12988v33.12988h-10.39844V38.24152h10.39844l20.1748,33.16456V38.24152h10.36328Zm28.6611,50.29932c-.47455-1.06993-.81122-2.1958-1.00201-3.35059-1.07782,1.17142-2.35974,2.13701-3.7832,2.84961-1.75943,.84521-3.69653,1.25421-5.64746,1.19238-3.29315,.09825-6.50574-1.02806-9.0166-3.16113-2.38245-1.97829-3.73108-4.93626-3.66211-8.03223-.16513-3.57164,1.46881-6.98877,4.35254-9.10253,2.90231-2.15334,7.19757-3.23016,12.88574-3.23047h4.45605v-2.17676c.07794-1.49254-.39545-2.96165-1.33008-4.12793-1.10132-1.11037-2.63934-1.6736-4.19727-1.53711-3.56937,0-5.35419,1.49707-5.35449,4.49121h-9.9834c.03336-3.31847,1.63486-6.42548,4.31836-8.37793,2.8779-2.33691,6.73532-3.50569,11.57227-3.50635,3.84302-.14493,7.6225,1.01138,10.72656,3.28174,2.84473,2.18848,4.26691,5.47038,4.2666,9.84571v15.82227c-.03156,1.72385,.09558,3.44693,.37988,5.14746,.20764,1.1749,.57983,2.31467,1.10547,3.38574v.58691l-10.08685-.00002Zm-8.25684-6.94336c1.5116,.04535,3.00439-.34447,4.30084-1.12306,1.03723-.60101,1.90955-1.44951,2.53906-2.46973v-6.49512h-4.07617c-2.64841,0-4.58298,.55859-5.80371,1.67578-1.18671,1.0405-1.85623,2.54988-1.83105,4.12793-.03375,1.16437,.43896,2.28616,1.2959,3.0752,.98996,.85117,2.27179,1.28462,3.57516,1.209h-.00003Zm42.53027,6.70117c-1.93842,.64034-3.96942,.95578-6.01074,.93359-2.82996,.14883-5.61377-.76274-7.80762-2.55664-1.93457-1.7041-2.90204-4.53677-2.90234-8.498v-19.72662h-5.49213v-7.28905h5.49219v-9.22412h9.98438v9.22412h6.35645v7.28906h-6.35645v18.68946c0,1.56639,.32227,2.60286,.9668,3.10938,.84491,.56444,1.85364,.83174,2.86719,.75977,.5484,.00285,1.0965-.02585,1.6416-.08594,.49512-.05762,.91541-.12109,1.26074-.19043l-.00006,7.56543Zm4.90039-46.81006c-.04126-1.39696,.5108-2.74609,1.51953-3.71338,2.36523-1.95768,5.78809-1.95768,8.15332,0,2.02606,2.04773,2.02606,5.34485,0,7.39258-2.36523,1.95768-5.78809,1.95768-8.15332,0-1.00427-.95616-1.5564-2.29305-1.51947-3.67921h-.00006Zm10.63965,9.67335v37.37891h-10.01752V51.16193h10.01752Zm5.00684,19.06934v-.72559c-.1698-4.94463,1.47681-9.7803,4.62891-13.59375,3.08594-3.62695,7.43878-5.44058,13.05859-5.44092,5.6875,0,10.06317,1.81364,13.12701,5.44092,3.13135,3.82303,4.76459,8.65491,4.59473,13.59375v.72559c.172,4.93411-1.46167,9.76152-4.59473,13.57715-3.06348,3.61522-7.41602,5.42317-13.05762,5.42381-5.66602,0-10.04199-1.80794-13.12793-5.42381-3.15381-3.80603-4.8009-8.63725-4.62891-13.57715h-.00006Zm10.01855-.72559v.72559c-.08118,2.69092,.5188,5.35875,1.74414,7.75586,1.16309,2.13086,3.16113,3.19597,5.99414,3.19531,2.78613,0,4.76074-1.06511,5.92383-3.19531,1.22571-2.39703,1.82599-5.06485,1.74512-7.75586v-.72559c.06744-2.67845-.53223-5.33164-1.74512-7.7207-1.16309-2.17676-3.16083-3.26498-5.99316-3.26465-2.81055,0-4.79132,1.08822-5.94238,3.26465-1.20111,2.39262-1.79407,5.04436-1.7265,7.72069l-.00006,.00002Zm46.75293-10.95117c-2.62354-.11901-5.08234,1.27866-6.32227,3.59375v26.39258h-9.9834V51.16193h9.36133l.3457,4.28418c2.58356-3.27625,6.57446-5.12425,10.74414-4.9751,3.16809-.14262,6.25879,1.00396,8.56738,3.17823,2.16406,2.11914,3.2464,5.81576,3.24701,11.08984v23.80176h-10.01843v-23.83693c0-2.39452-.51233-4.01823-1.53711-4.87109-1.27289-.92921-2.83173-1.38167-4.4043-1.27831h-.00006Zm42.46094,19.62305c-.01111-1.08176-.56183-2.08646-1.46777-2.67773-.97949-.72557-3.03516-1.4222-6.16699-2.08984-3.39899-.63116-6.63574-1.94147-9.5166-3.85254-2.47455-1.66638-3.90692-4.49774-3.7832-7.47852,.02698-3.16911,1.4801-6.15747,3.95605-8.13574,2.63672-2.31445,6.28125-3.47183,10.93359-3.47217,4.8584,0,8.68134,1.14014,11.46875,3.42041,2.67896,2.05743,4.22882,5.25924,4.18066,8.63672h-9.98431c.04034-1.32438-.45831-2.60847-1.38184-3.55859-1.18701-1.03957-2.74628-1.55083-4.31836-1.416-1.39105-.08324-2.76691,.32651-3.88574,1.15723-.89288,.68909-1.41089,1.75699-1.39941,2.88477,.0069,1.09563,.59113,2.10638,1.53711,2.65918,1.68982,.92395,3.53363,1.53281,5.44141,1.79687,3.55579,.62089,6.97186,1.87269,10.08691,3.69629,2.67188,1.6582,4.00781,4.34114,4.00781,8.04883,.01727,3.26208-1.57166,6.32382-4.24902,8.1875-2.83301,2.16504-6.65625,3.24771-11.46973,3.248-5.22852,0-9.22424-1.3418-11.9873-4.02539-2.76367-2.6826-4.14551-5.54395-4.14551-8.584h9.5c-.05267,1.68245,.76276,3.27394,2.15918,4.21387,1.40442,.86835,3.02985,1.31227,4.68066,1.27832,3.86914,.00003,5.80371-1.31245,5.80371-3.93745h-.00006Z"/></g></g></svg>